<svg width="20" height="21" viewBox="0 0 20 21" fill="none" xmlns="http://www.w3.org/2000/svg">
<path d="M12.111 12.368H10.633C10.5192 11.9714 10.351 11.5924 10.133 11.242L11.202 10.17C11.2546 10.1167 11.284 10.0449 11.284 9.97003C11.284 9.89519 11.2546 9.82335 11.202 9.77003L9.98503 8.55403C9.93172 8.50151 9.85988 8.47207 9.78503 8.47207C9.71019 8.47207 9.63835 8.50151 9.58503 8.55403L8.47703 9.65403C8.13464 9.46127 7.76855 9.31402 7.38803 9.21603V7.64103C7.38804 7.603 7.38048 7.56535 7.36581 7.53027C7.35114 7.49519 7.32964 7.46337 7.30256 7.43666C7.27549 7.40996 7.24338 7.3889 7.20809 7.37472C7.17281 7.36053 7.13506 7.3535 7.09703 7.35403H5.37703C5.30092 7.35403 5.22792 7.38427 5.17409 7.43809C5.12027 7.49192 5.09003 7.56492 5.09003 7.64103V9.22003C4.70952 9.31802 4.34343 9.46527 4.00103 9.65803L2.89403 8.55403C2.84071 8.50151 2.76888 8.47207 2.69403 8.47207C2.61919 8.47207 2.54735 8.50151 2.49403 8.55403L1.27703 9.76703C1.22451 9.82035 1.19507 9.89219 1.19507 9.96703C1.19507 10.0419 1.22451 10.1137 1.27703 10.167L2.34603 11.239C2.12811 11.5894 1.95984 11.9684 1.84603 12.365H0.364034C0.326175 12.365 0.288691 12.3725 0.253739 12.3871C0.218788 12.4016 0.18706 12.4229 0.160384 12.4498C0.133707 12.4767 0.112608 12.5085 0.0983031 12.5436C0.0839982 12.5786 0.0767695 12.6162 0.0770333 12.654V14.374C0.0770333 14.4501 0.107271 14.5231 0.161094 14.577C0.214916 14.6308 0.287916 14.661 0.364034 14.661H1.76403C1.86099 15.0921 2.01927 15.507 2.23403 15.893L1.27703 16.854C1.22451 16.9074 1.19507 16.9792 1.19507 17.054C1.19507 17.1289 1.22451 17.2007 1.27703 17.254L2.49203 18.469C2.54535 18.5216 2.61719 18.551 2.69203 18.551C2.76688 18.551 2.83871 18.5216 2.89203 18.469L3.82003 17.543C4.21269 17.7883 4.64068 17.9717 5.08903 18.087V19.379C5.08903 19.4552 5.11927 19.5281 5.17309 19.582C5.22692 19.6358 5.29992 19.666 5.37603 19.666H7.09703C7.13472 19.666 7.17204 19.6586 7.20686 19.6442C7.24168 19.6298 7.27332 19.6086 7.29997 19.582C7.32662 19.5553 7.34776 19.5237 7.36219 19.4889C7.37661 19.454 7.38403 19.4167 7.38403 19.379V18.096C7.83239 17.9807 8.26038 17.7973 8.65303 17.552L9.58103 18.478C9.63435 18.5306 9.70619 18.56 9.78103 18.56C9.85588 18.56 9.92771 18.5306 9.98103 18.478L11.196 17.263C11.2486 17.2097 11.278 17.1379 11.278 17.063C11.278 16.9882 11.2486 16.9163 11.196 16.863L10.233 15.897C10.4478 15.5109 10.6061 15.0961 10.703 14.665H12.103C12.1791 14.665 12.2521 14.6348 12.306 14.581C12.3598 14.5271 12.39 14.4541 12.39 14.378V12.654C12.3898 12.5795 12.3605 12.5079 12.3085 12.4545C12.2564 12.4011 12.1856 12.3701 12.111 12.368ZM6.23703 16.237C5.72713 16.237 5.22866 16.0859 4.80463 15.8027C4.38061 15.5195 4.05005 15.1169 3.85473 14.6459C3.65942 14.1749 3.60811 13.6565 3.7073 13.1564C3.80649 12.6562 4.05172 12.1967 4.412 11.8358C4.77227 11.475 5.23143 11.229 5.73145 11.1291C6.23146 11.0291 6.74989 11.0796 7.22121 11.2742C7.69252 11.4688 8.09558 11.7987 8.37945 12.2223C8.66331 12.6459 8.81524 13.1441 8.81603 13.654C8.81603 14.3384 8.54445 14.9948 8.0609 15.4791C7.57736 15.9634 6.92139 16.236 6.23703 16.237Z" fill="#7AD676"/>
<path d="M18.962 6.29698C18.9475 6.26253 18.9259 6.23148 18.8987 6.20583C18.8715 6.18017 18.8393 6.16047 18.804 6.14798L17.81 5.76298C17.8277 5.48148 17.8123 5.19888 17.764 4.92098L18.764 4.47698C18.7985 4.46245 18.8295 4.44089 18.8552 4.41369C18.8808 4.38648 18.9005 4.35423 18.913 4.31898C18.927 4.28365 18.9337 4.24585 18.9327 4.20787C18.9317 4.16988 18.9229 4.1325 18.907 4.09798L18.378 2.91298C18.3453 2.84439 18.2878 2.79078 18.217 2.76298C18.1472 2.73431 18.0689 2.73431 17.999 2.76298L16.965 3.22398C16.7908 3.02157 16.5946 2.83912 16.38 2.67998L16.787 1.61398C16.801 1.57917 16.8077 1.54186 16.8067 1.50436C16.8056 1.46686 16.7969 1.42997 16.781 1.39598C16.7494 1.32719 16.693 1.2729 16.623 1.24398L15.408 0.779981C15.3732 0.766005 15.3359 0.759326 15.2984 0.760358C15.2609 0.76139 15.224 0.770111 15.19 0.78598C15.1549 0.800003 15.1232 0.821347 15.097 0.848592C15.0708 0.875837 15.0507 0.908356 15.038 0.943981L14.625 2.00998C14.3587 1.98456 14.0903 1.98926 13.825 2.02398L13.367 0.989981C13.3358 0.920933 13.2785 0.867093 13.2076 0.840282C13.1367 0.813471 13.0581 0.81588 12.989 0.846981L11.8 1.37398C11.7312 1.40546 11.6773 1.46262 11.6501 1.53325C11.6228 1.60388 11.6242 1.68238 11.654 1.75198L12.098 2.75198C11.8741 2.92653 11.6726 3.12805 11.498 3.35198L10.512 2.96298C10.4411 2.93576 10.3622 2.93761 10.2926 2.96812C10.2229 2.99863 10.1681 3.05534 10.14 3.12598L9.67604 4.34098C9.66206 4.37579 9.65538 4.4131 9.65641 4.4506C9.65745 4.4881 9.66617 4.52499 9.68204 4.55898C9.69689 4.59358 9.71852 4.62486 9.74566 4.65096C9.7728 4.67707 9.80489 4.69748 9.84004 4.71098L10.78 5.07198C10.7399 5.37332 10.7399 5.67864 10.78 5.97998L9.88604 6.37998C9.81688 6.41206 9.76253 6.46927 9.73404 6.53998C9.70727 6.61061 9.70943 6.68893 9.74004 6.75798L10.27 7.94698C10.3011 8.0162 10.3582 8.07037 10.429 8.0977C10.4998 8.12504 10.5785 8.12334 10.648 8.09298L11.502 7.71198C11.6992 7.96559 11.9307 8.19043 12.19 8.37998L11.858 9.23998C11.8312 9.31162 11.8334 9.3909 11.864 9.46098C11.8961 9.53014 11.9533 9.58448 12.024 9.61298L13.236 10.077C13.2678 10.0901 13.3017 10.0969 13.336 10.097C13.3765 10.0969 13.4164 10.088 13.453 10.071C13.5215 10.0399 13.575 9.98313 13.602 9.91298L13.934 9.05098C14.2532 9.08306 14.5753 9.0706 14.891 9.01398L15.272 9.86798C15.3029 9.93738 15.36 9.99172 15.4309 10.0191C15.5017 10.0465 15.5805 10.0446 15.65 10.014L16.836 9.48398C16.8705 9.4688 16.9016 9.44697 16.9276 9.41974C16.9536 9.39251 16.974 9.36042 16.9875 9.3253C17.0011 9.29018 17.0076 9.25273 17.0066 9.21509C17.0057 9.17746 16.9973 9.14038 16.982 9.10598L16.582 8.21198C16.8129 8.01398 17.0169 7.78673 17.189 7.53598L18.129 7.89698C18.1642 7.91048 18.2017 7.91689 18.2394 7.91585C18.2771 7.9148 18.3142 7.90632 18.3485 7.8909C18.3829 7.87547 18.4139 7.8534 18.4398 7.82596C18.4656 7.79851 18.4857 7.76624 18.499 7.73098L18.963 6.51898C18.978 6.48385 18.9856 6.44605 18.9854 6.40788C18.9852 6.36971 18.9773 6.33198 18.962 6.29698ZM16.168 6.25398C16.0226 6.63574 15.7647 6.96437 15.4285 7.19648C15.0923 7.42859 14.6936 7.55325 14.285 7.55398C14.0372 7.55307 13.7916 7.50733 13.56 7.41898C13.3126 7.32397 13.0864 7.18116 12.8941 6.9987C12.7019 6.81624 12.5475 6.59771 12.4398 6.35558C12.332 6.11345 12.273 5.85247 12.2661 5.58753C12.2592 5.32259 12.3045 5.05889 12.3995 4.81148C12.4945 4.56407 12.6374 4.3378 12.8198 4.14558C13.0023 3.95336 13.2208 3.79896 13.4629 3.6912C13.7051 3.58344 13.9661 3.52442 14.231 3.51752C14.4959 3.51062 14.7596 3.55597 15.007 3.65098C15.5057 3.84279 15.9081 4.22447 16.1259 4.71238C16.3437 5.20029 16.3592 5.75465 16.169 6.25398H16.168Z" fill="#7AD676"/>
</svg>
