<svg width="20" height="21" viewBox="0 0 20 21" fill="none" xmlns="http://www.w3.org/2000/svg">
<path d="M12.004 12.44H10.539C10.4248 12.0467 10.2565 11.6711 10.039 11.324L11.098 10.262C11.151 10.209 11.1808 10.137 11.1808 10.062C11.1808 9.98703 11.151 9.91509 11.098 9.86203L9.89801 8.66203C9.84495 8.60903 9.77302 8.57925 9.69801 8.57925C9.62301 8.57925 9.55108 8.60903 9.49801 8.66203L8.39801 9.76203C8.05881 9.5707 7.69608 9.42446 7.31901 9.32703V7.75403C7.31875 7.67862 7.28861 7.60638 7.23519 7.55315C7.18177 7.49992 7.10943 7.47003 7.03401 7.47003H5.33401C5.25877 7.4703 5.18669 7.5003 5.13349 7.5535C5.08028 7.60671 5.05028 7.67879 5.05001 7.75403V9.31903C4.67295 9.41646 4.31022 9.5627 3.97101 9.75403L2.87101 8.65403C2.81795 8.60103 2.74602 8.57125 2.67101 8.57125C2.59601 8.57125 2.52408 8.60103 2.47101 8.65403L1.27101 9.85403C1.21801 9.90709 1.18824 9.97903 1.18824 10.054C1.18824 10.129 1.21801 10.201 1.27101 10.254L2.33001 11.316C2.11248 11.6631 1.9442 12.0387 1.83001 12.432H0.360014C0.322075 12.4322 0.284542 12.4398 0.249616 12.4547C0.214691 12.4695 0.183075 12.4911 0.156623 12.5183C0.130171 12.5455 0.109416 12.5777 0.0955736 12.613C0.0817316 12.6484 0.0750817 12.6861 0.0760138 12.724V14.424C0.0762773 14.4993 0.106283 14.5714 0.159486 14.6246C0.21269 14.6778 0.284773 14.7078 0.360014 14.708H1.75201C1.84817 15.1352 2.0051 15.5464 2.21801 15.929L1.26401 16.886C1.21101 16.9391 1.18124 17.011 1.18124 17.086C1.18124 17.161 1.21101 17.233 1.26401 17.286L2.46401 18.486C2.51708 18.539 2.58901 18.5688 2.66401 18.5688C2.73902 18.5688 2.81095 18.539 2.86401 18.486L3.78401 17.569C4.17322 17.8124 4.5975 17.9945 5.04201 18.109V19.39C5.04228 19.4653 5.07228 19.5374 5.12549 19.5906C5.17869 19.6438 5.25077 19.6738 5.32601 19.674H7.02601C7.10125 19.6738 7.17334 19.6438 7.22654 19.5906C7.27974 19.5374 7.30975 19.4653 7.31001 19.39V18.117C7.75453 18.0025 8.17881 17.8204 8.56801 17.577L9.48801 18.494C9.54108 18.547 9.61301 18.5768 9.68801 18.5768C9.76301 18.5768 9.83495 18.547 9.88801 18.494L11.088 17.294C11.141 17.241 11.1708 17.169 11.1708 17.094C11.1708 17.019 11.141 16.9471 11.088 16.894L10.134 15.937C10.3469 15.5544 10.5039 15.1432 10.6 14.716H11.992C12.0673 14.7158 12.1393 14.6858 12.1925 14.6326C12.2457 14.5794 12.2758 14.5073 12.276 14.432V12.732C12.2779 12.6574 12.2505 12.5851 12.1996 12.5305C12.1488 12.4759 12.0786 12.4434 12.004 12.44ZM6.18201 16.27C5.67648 16.27 5.18231 16.1201 4.76198 15.8393C4.34164 15.5584 4.01404 15.1592 3.82058 14.6922C3.62712 14.2251 3.5765 13.7112 3.67513 13.2154C3.77375 12.7196 4.01719 12.2641 4.37465 11.9067C4.73211 11.5492 5.18755 11.3058 5.68336 11.2071C6.17918 11.1085 6.6931 11.1591 7.16015 11.3526C7.6272 11.5461 8.02639 11.8737 8.30725 12.294C8.58811 12.7143 8.73801 13.2085 8.73801 13.714C8.73696 14.3916 8.46732 15.0411 7.98821 15.5202C7.5091 15.9993 6.85958 16.269 6.18201 16.27Z" fill="#D84242"/>
<path d="M18.795 6.42204C18.7807 6.38791 18.7595 6.35712 18.7326 6.33165C18.7057 6.30617 18.6739 6.28655 18.639 6.27404L17.654 5.89305C17.6718 5.61391 17.6567 5.33365 17.609 5.05805L18.597 4.61804C18.6312 4.60372 18.662 4.58246 18.6874 4.5556C18.7129 4.52875 18.7325 4.49689 18.745 4.46204C18.7589 4.42702 18.7655 4.38957 18.7644 4.35193C18.7634 4.31429 18.7548 4.27726 18.739 4.24304L18.216 3.06705C18.184 2.99845 18.1272 2.94451 18.057 2.91605C17.9871 2.88951 17.9094 2.89166 17.841 2.92204L16.816 3.37905C16.6446 3.17765 16.4515 2.99588 16.24 2.83704L16.64 1.78104C16.6538 1.74654 16.6604 1.70957 16.6594 1.67242C16.6584 1.63527 16.6497 1.59873 16.634 1.56504C16.6027 1.497 16.5471 1.44314 16.478 1.41405L15.278 0.954045C15.2435 0.940236 15.2066 0.933643 15.1694 0.934675C15.1323 0.935707 15.0957 0.944341 15.062 0.960045C15.0272 0.973857 14.9958 0.994909 14.9698 1.0218C14.9437 1.0487 14.9237 1.08082 14.911 1.11604L14.505 2.17004C14.2413 2.14497 13.9757 2.14966 13.713 2.18404L13.259 1.15905C13.228 1.09057 13.1712 1.03718 13.1009 1.01056C13.0306 0.983941 12.9526 0.986274 12.884 1.01704L11.705 1.54005C11.6366 1.5711 11.583 1.62779 11.5559 1.69791C11.5288 1.76804 11.5303 1.846 11.56 1.91505L12 2.90304C11.7796 3.07514 11.5811 3.27362 11.409 3.49405L10.424 3.11604C10.3536 3.08888 10.2753 3.09067 10.2062 3.12101C10.137 3.15136 10.0827 3.20781 10.055 3.27804L9.59504 4.47805C9.58123 4.51255 9.57463 4.54952 9.57567 4.58667C9.5767 4.62382 9.58533 4.66036 9.60103 4.69405C9.61567 4.72833 9.63702 4.75935 9.6638 4.78528C9.69059 4.81121 9.72229 4.83153 9.75704 4.84505L10.689 5.20304C10.6493 5.50173 10.6493 5.80436 10.689 6.10305L9.80303 6.49804C9.73444 6.53009 9.6805 6.58689 9.65204 6.65705C9.6255 6.72702 9.62765 6.80465 9.65804 6.87304L10.183 8.05204C10.2139 8.12069 10.2706 8.17442 10.3408 8.20156C10.411 8.2287 10.489 8.22708 10.558 8.19705L11.404 7.81905C11.5994 8.07039 11.829 8.29321 12.086 8.48104L11.757 9.33305C11.7304 9.40404 11.7326 9.48261 11.763 9.55204C11.7951 9.62064 11.8519 9.67458 11.922 9.70304L13.122 10.163C13.1537 10.1762 13.1877 10.183 13.222 10.183C13.2621 10.1828 13.3017 10.174 13.338 10.157C13.4059 10.1265 13.4591 10.0704 13.486 10.001L13.815 9.14604C14.1316 9.17776 14.4509 9.16531 14.764 9.10905L15.142 9.95504C15.1571 9.98921 15.1788 10.0201 15.2058 10.0459C15.2328 10.0717 15.2646 10.0919 15.2995 10.1053C15.3343 10.1188 15.3714 10.1253 15.4088 10.1244C15.4461 10.1234 15.4829 10.1152 15.517 10.1L16.693 9.57504C16.7273 9.56008 16.7582 9.53848 16.7841 9.51148C16.81 9.48449 16.8302 9.45264 16.8437 9.41777C16.8572 9.3829 16.8636 9.34571 16.8627 9.30834C16.8617 9.27097 16.8533 9.23416 16.838 9.20004L16.443 8.31404C16.6713 8.11769 16.8729 7.89246 17.043 7.64404L17.975 8.00204C18.0098 8.01521 18.0469 8.02138 18.0841 8.02022C18.1213 8.01905 18.1578 8.01056 18.1917 7.99523C18.2256 7.9799 18.2562 7.95804 18.2816 7.9309C18.3071 7.90376 18.3269 7.87186 18.34 7.83704L18.8 6.63704C18.8135 6.60267 18.82 6.56596 18.8192 6.52904C18.8183 6.49213 18.8101 6.45575 18.795 6.42204ZM16.026 6.37905C15.8813 6.75662 15.6255 7.08144 15.2923 7.31067C14.9592 7.53989 14.5644 7.66275 14.16 7.66304C13.9143 7.66244 13.6707 7.61738 13.441 7.53005C13.1958 7.43589 12.9715 7.29435 12.781 7.11351C12.5904 6.93267 12.4374 6.71606 12.3305 6.47607C12.2237 6.23608 12.1652 5.97739 12.1583 5.71478C12.1514 5.45218 12.1964 5.19079 12.2905 4.94555C12.3847 4.7003 12.5262 4.47601 12.7071 4.28546C12.8879 4.09492 13.1045 3.94186 13.3445 3.83503C13.5845 3.72819 13.8432 3.66968 14.1058 3.66282C14.3684 3.65596 14.6298 3.70089 14.875 3.79504C15.1203 3.88911 15.3446 4.03057 15.5352 4.21135C15.7258 4.39212 15.8789 4.60867 15.9858 4.84863C16.0927 5.08858 16.1512 5.34724 16.1581 5.60983C16.1651 5.87242 16.1202 6.1338 16.026 6.37905Z" fill="#D84242"/>
</svg>
