<svg width="18" height="17" viewBox="0 0 18 17" fill="none" xmlns="http://www.w3.org/2000/svg">
<path d="M8.24301 0.174973L1.25701 2.79497C0.950032 2.91085 0.685662 3.11755 0.499141 3.3875C0.31262 3.65746 0.212809 3.97785 0.213013 4.30597V11.866C0.212949 12.1651 0.296173 12.4584 0.453365 12.7129C0.610556 12.9674 0.835505 13.1731 1.10301 13.307L8.08901 16.8C8.31247 16.9127 8.55925 16.9714 8.80951 16.9714C9.05978 16.9714 9.30656 16.9127 9.53001 16.8L16.513 13.307C16.7807 13.1733 17.0057 12.9676 17.163 12.7131C17.3202 12.4585 17.4033 12.1652 17.403 11.866V4.30597C17.4032 3.97823 17.3033 3.65824 17.1167 3.38878C16.9302 3.11931 16.6658 2.91319 16.359 2.79797L9.37501 0.178973C9.01105 0.0382515 8.60796 0.0368269 8.24301 0.174973ZM8.81301 1.68697L15.799 4.30697V4.31697L8.81301 7.15397L1.82501 4.31597V4.30597L8.81301 1.68697ZM1.82501 6.05597L8.00501 8.56797V14.956L1.82501 11.866V6.05597ZM9.61701 14.956V8.56797L15.797 6.05597V11.863L9.61701 14.956Z" fill="#637182" fill-opacity="0.55"/>
</svg>
