<svg width="196" height="130" viewBox="0 0 196 130" fill="none" xmlns="http://www.w3.org/2000/svg">
<path d="M187.732 35.107C183.789 20.39 172.074 8.14396 157.808 4.22296C150.583 2.33839 142.98 2.46276 135.82 4.58265C128.66 6.70254 122.216 10.7375 117.181 16.252C112.255 21.741 108.707 28.652 102.824 33.014C95.662 38.322 86.259 38.952 77.492 38.398C68.725 37.844 59.866 36.29 51.222 37.962C37.371 40.644 25.465 52.196 21.967 66.331C18.469 80.466 23.614 96.42 34.567 105.508L46.673 115.525C57.773 123.586 99.829 126.951 126.016 124.957C144.552 123.545 157.216 116.431 168.376 105.327C177.013 96.741 182.129 85.017 185.548 73.152C189.125 60.798 191.048 47.49 187.732 35.107Z" fill="#D2EEF6"/>
<path d="M195.135 128.067C195.135 128.111 151.445 128.149 97.567 128.149C43.689 128.149 0 128.121 0 128.067C0 128.013 43.68 127.984 97.58 127.984C151.48 127.984 195.135 128.022 195.135 128.067Z" fill="#263238"/>
<path d="M135.465 17.402L132.442 19.99L136.48 24.712L139.506 22.124L135.465 17.402Z" fill="#263238"/>
<path d="M138.08 17.035L131.854 22.384L127.488 17.296C129.047 14.9919 131.193 13.1455 133.704 11.947L138.08 17.035Z" fill="#455A64"/>
<path d="M132.903 21.487C132.868 21.519 131.816 20.361 130.55 18.908C129.763 18.0503 129.02 17.1535 128.324 16.221C128.362 16.189 129.412 17.347 130.677 18.8C131.942 20.253 132.942 21.459 132.903 21.487Z" fill="#263238"/>
<path d="M134.08 20.47C133.828 20.2252 133.594 19.9629 133.38 19.685C132.96 19.192 132.391 18.508 131.764 17.745L130.174 15.786L129.697 15.191C129.583 15.045 129.522 14.978 129.522 14.968C130.386 15.7919 131.18 16.6852 131.898 17.639C132.534 18.402 133.081 19.099 133.488 19.61C133.71 19.8782 133.908 20.1657 134.079 20.469L134.08 20.47Z" fill="#263238"/>
<path d="M135.67 19.112C135.415 18.8679 135.178 18.6056 134.961 18.327C134.538 17.827 133.966 17.127 133.336 16.359L131.746 14.368L131.269 13.761C131.207 13.6887 131.152 13.611 131.104 13.529C131.377 13.7547 131.622 14.0118 131.835 14.295C132.265 14.788 132.843 15.481 133.47 16.254C134.097 17.027 134.659 17.736 135.06 18.254C135.287 18.5227 135.491 18.81 135.67 19.113V19.112Z" fill="#263238"/>
<path d="M137.104 17.84C137.069 17.869 136.023 16.702 134.767 15.232C133.511 13.762 132.525 12.545 132.56 12.513C132.595 12.481 133.638 13.651 134.894 15.124C136.15 16.597 137.142 17.811 137.104 17.84Z" fill="#263238"/>
<path d="M188.748 20.617L185.998 17.739L181.505 22.032L184.256 24.91L188.748 20.617Z" fill="#263238"/>
<path d="M188.881 23.452L183.214 17.521L188.057 12.894C190.439 14.3322 192.393 16.3795 193.72 18.825L188.881 23.452Z" fill="#455A64"/>
<path d="M184.161 18.514C184.129 18.479 185.226 17.366 186.613 16.027C188 14.688 189.157 13.627 189.179 13.661C189.201 13.695 188.114 14.806 186.727 16.148C185.34 17.49 184.193 18.546 184.161 18.514Z" fill="#263238"/>
<path d="M185.242 19.643C185.468 19.376 185.715 19.1272 185.98 18.899C186.447 18.454 187.103 17.846 187.831 17.179L189.704 15.484L190.273 14.975C190.41 14.854 190.473 14.794 190.486 14.791C189.708 15.6962 188.857 16.536 187.942 17.302C187.214 17.967 186.542 18.574 186.056 18.984C185.802 19.2244 185.53 19.4444 185.242 19.642V19.643Z" fill="#263238"/>
<path d="M186.68 21.147C186.909 20.8778 187.159 20.627 187.427 20.397C187.901 19.949 188.566 19.338 189.307 18.67L191.215 16.97L191.797 16.461C191.868 16.3978 191.942 16.3384 192.019 16.283C191.809 16.5684 191.565 16.8279 191.294 17.056C190.823 17.511 190.159 18.124 189.421 18.792C188.683 19.46 188.003 20.064 187.513 20.484C187.253 20.7254 186.974 20.9463 186.68 21.145V21.147Z" fill="#263238"/>
<path d="M188.026 22.518C187.994 22.483 189.107 21.38 190.509 20.047C191.911 18.714 193.075 17.665 193.109 17.7C193.143 17.735 192.028 18.838 190.626 20.168C189.224 21.498 188.057 22.546 188.026 22.518Z" fill="#263238"/>
<path d="M163.361 6.87596H158.648V14.231H163.361V6.87596Z" fill="#263238"/>
<path d="M165.88 9.07596H156.18V1.15196C159.358 0.286423 162.711 0.286423 165.889 1.15196L165.88 9.07596Z" fill="#0097C2"/>
<path d="M166.004 1.17996C165.89 1.25087 165.77 1.31049 165.645 1.35796C165.313 1.50417 164.972 1.62942 164.624 1.73296C164.103 1.89337 163.572 2.01865 163.034 2.10796C162.381 2.21156 161.721 2.26671 161.059 2.27296C160.398 2.27402 159.738 2.22521 159.084 2.12696C158.546 2.04355 158.015 1.9236 157.494 1.76796C157.146 1.66595 156.804 1.54375 156.47 1.40196C156.344 1.35793 156.223 1.2992 156.111 1.22696C156.111 1.19796 156.645 1.41796 157.526 1.65296C158.043 1.78953 158.568 1.89571 159.097 1.97096C159.744 2.05868 160.397 2.10344 161.05 2.10496C161.703 2.09738 162.355 2.04626 163.002 1.95196C163.529 1.87571 164.052 1.76954 164.567 1.63396C165.47 1.37696 165.991 1.15196 166.004 1.17996Z" fill="#263238"/>
<path d="M159.386 9.05197C159.341 9.05197 159.303 7.52897 159.303 5.65197C159.303 3.77497 159.341 2.25197 159.386 2.25197C159.431 2.25197 159.469 3.77197 159.469 5.65197C159.469 7.53197 159.434 9.05197 159.386 9.05197Z" fill="#263238"/>
<path d="M161.234 9.09797C161.189 9.09797 161.151 7.56797 161.151 5.68297C161.151 3.79797 161.189 2.27097 161.234 2.27097C161.279 2.27097 161.316 3.79697 161.316 5.68297C161.316 7.56897 161.281 9.09797 161.234 9.09797Z" fill="#263238"/>
<path d="M163.082 9.06897C163.037 9.06897 162.999 7.53897 162.999 5.65397C162.999 3.76897 163.037 2.23897 163.082 2.23897C163.127 2.23897 163.164 3.76897 163.164 5.65397C163.164 7.53897 163.129 9.06897 163.082 9.06897Z" fill="#263238"/>
<path d="M164.608 9.06897C164.561 9.06897 164.526 7.41497 164.526 5.37697C164.526 3.33897 164.561 1.68497 164.608 1.68497C164.655 1.68497 164.691 3.33897 164.691 5.37697C164.726 6.60824 164.698 7.8405 164.608 9.06897Z" fill="#263238"/>
<path d="M157.642 9.02197C157.598 9.02197 157.56 7.36797 157.56 5.32997C157.56 3.29197 157.598 1.63797 157.642 1.63797C157.686 1.63797 157.725 3.29197 157.725 5.32997C157.725 7.36797 157.688 9.02197 157.642 9.02197Z" fill="#263238"/>
<path d="M184.682 70.491C189.478 65.6954 192.743 59.5856 194.067 52.9339C195.39 46.2823 194.711 39.3877 192.115 33.122C189.52 26.8563 185.125 21.5009 179.486 17.733C173.847 13.9652 167.217 11.9541 160.436 11.9541C153.654 11.9541 147.024 13.9652 141.385 17.733C135.746 21.5009 131.351 26.8563 128.756 33.122C126.16 39.3877 125.481 46.2823 126.804 52.9339C128.128 59.5856 131.393 65.6954 136.189 70.491C142.62 76.9212 151.341 80.5337 160.436 80.5337C169.53 80.5337 178.251 76.9212 184.682 70.491Z" fill="#0097C2"/>
<path d="M160.436 74.771C166.132 74.771 171.7 73.0819 176.436 69.9173C181.173 66.7527 184.864 62.2548 187.044 56.9922C189.224 51.7297 189.794 45.939 188.683 40.3524C187.571 34.7657 184.828 29.634 180.801 25.6063C176.773 21.5785 171.641 18.8356 166.055 17.7243C160.468 16.6131 154.677 17.1834 149.415 19.3632C144.152 21.543 139.654 25.2344 136.49 29.9705C133.325 34.7067 131.636 40.2749 131.636 45.971C131.636 49.753 132.381 53.4981 133.828 56.9922C135.276 60.4864 137.397 63.6613 140.071 66.3356C142.746 69.01 145.921 71.1314 149.415 72.5787C152.909 74.026 156.654 74.771 160.436 74.771Z" fill="#FAFAFA"/>
<path d="M189.233 45.973C189.233 45.973 189.233 45.817 189.211 45.509C189.189 45.201 189.211 44.739 189.151 44.138C189.037 42.3831 188.762 40.6425 188.33 38.938C187.642 36.244 186.57 33.663 185.147 31.274C183.248 28.1127 180.766 25.3406 177.833 23.105C174.273 20.3965 170.13 18.5582 165.733 17.737C162.007 17.0511 158.183 17.0953 154.473 17.867C153.17 18.1506 151.887 18.518 150.632 18.967C145.289 20.9132 140.642 24.3976 137.276 28.981C136.398 30.1743 135.615 31.4352 134.936 32.752C134.583 33.41 134.28 34.094 133.982 34.781C133.68 35.4742 133.416 36.1832 133.19 36.905C132.702 38.3559 132.336 39.8451 132.096 41.357C131.854 42.8853 131.728 44.4297 131.717 45.977C131.729 47.5254 131.854 49.071 132.093 50.601C132.336 52.1122 132.702 53.6012 133.187 55.053C133.416 55.775 133.702 56.474 133.978 57.174C134.261 57.8673 134.579 58.5455 134.932 59.206C135.612 60.5232 136.396 61.7842 137.276 62.977C140.641 67.5626 145.288 71.0489 150.632 72.996C151.887 73.4449 153.17 73.8124 154.473 74.096C155.743 74.3613 157.03 74.5407 158.324 74.633C165.315 75.1556 172.255 73.099 177.833 68.852C180.767 66.6173 183.249 63.845 185.147 60.683C185.922 59.3888 186.591 58.0341 187.147 56.632C188.276 53.8206 188.951 50.8474 189.147 47.824C189.201 47.224 189.191 46.762 189.207 46.453C189.223 46.144 189.229 45.986 189.229 45.986V46.452C189.229 46.76 189.229 47.222 189.185 47.823C189.011 50.855 188.348 53.8391 187.223 56.66C186.668 58.0687 185.999 59.4299 185.223 60.73C183.328 63.9072 180.846 66.6948 177.909 68.944C172.309 73.2136 165.34 75.286 158.317 74.77C157.016 74.6778 155.724 74.4984 154.447 74.233C153.136 73.951 151.846 73.5836 150.583 73.133C145.212 71.1789 140.539 67.678 137.155 63.072C136.272 61.8725 135.485 60.6048 134.802 59.281C134.446 58.62 134.141 57.926 133.829 57.236C133.522 56.5412 133.256 55.8286 133.034 55.102C132.546 53.6441 132.178 52.1488 131.934 50.631C131.429 47.5515 131.429 44.4104 131.934 41.331C132.179 39.8195 132.547 38.3306 133.034 36.879C133.266 36.151 133.552 35.448 133.834 34.745C134.118 34.0463 134.442 33.3645 134.804 32.703C135.489 31.38 136.277 30.1128 137.16 28.913C140.544 24.3054 145.217 20.8043 150.59 18.852C151.852 18.4018 153.141 18.0344 154.451 17.752C155.729 17.4867 157.022 17.3073 158.324 17.215C165.346 16.6997 172.314 18.772 177.913 23.041C183.107 27.0081 186.805 32.6158 188.407 38.952C188.831 40.6611 189.096 42.4059 189.198 44.164C189.246 44.764 189.23 45.226 189.243 45.535C189.254 45.6809 189.25 45.8276 189.233 45.973Z" fill="#263238"/>
<path d="M185.007 44.93C184.453 44.9999 183.891 44.9728 183.347 44.85C183.877 44.6765 184.433 44.596 184.991 44.612C185.545 44.5251 186.11 44.551 186.654 44.688C186.127 44.8792 185.567 44.9615 185.007 44.93Z" fill="#263238"/>
<path d="M184.394 51.56C183.839 51.4741 183.302 51.2981 182.804 51.039C183.362 51.0136 183.92 51.0846 184.454 51.249C185.013 51.319 185.552 51.4959 186.044 51.77C185.486 51.8111 184.924 51.7397 184.394 51.56Z" fill="#263238"/>
<path d="M182.017 57.777C181.506 57.5515 181.038 57.2384 180.634 56.852C181.177 56.9772 181.695 57.1922 182.167 57.488C182.688 57.6961 183.16 58.0124 183.55 58.416C183 58.3116 182.478 58.094 182.017 57.777Z" fill="#263238"/>
<path d="M178.058 63.1319C177.403 62.4959 176.917 61.932 176.974 61.86C177.031 61.788 177.61 62.26 178.274 62.894C178.938 63.528 179.422 64.086 179.358 64.166C179.294 64.246 178.71 63.7719 178.058 63.1319Z" fill="#263238"/>
<path d="M172.812 67.234C172.492 66.7759 172.253 66.2661 172.106 65.727C172.508 66.1154 172.839 66.5705 173.085 67.072C173.42 67.5217 173.661 68.0342 173.794 68.579C173.715 68.63 173.273 68.019 172.812 67.234Z" fill="#263238"/>
<path d="M166.659 69.775C166.473 69.248 166.381 68.6927 166.385 68.134C166.667 68.6159 166.864 69.143 166.967 69.692C167.171 70.2142 167.264 70.7729 167.242 71.333C166.943 70.8591 166.745 70.3288 166.659 69.775Z" fill="#263238"/>
<path d="M160.042 70.5639C159.995 70.0057 160.054 69.4437 160.214 68.907C160.357 69.4469 160.406 70.0073 160.36 70.5639C160.414 71.1222 160.355 71.6854 160.189 72.221C160.027 71.6845 159.977 71.1205 160.042 70.5639Z" fill="#263238"/>
<path d="M153.478 69.5679C153.59 69.0207 153.798 68.4977 154.092 68.0229C154.084 68.5822 153.977 69.1356 153.774 69.6569C153.676 70.2083 153.468 70.734 153.16 71.2019C153.146 70.6407 153.255 70.0831 153.478 69.5679Z" fill="#263238"/>
<path d="M147.394 66.8309C147.651 66.3347 147.991 65.8861 148.399 65.5049C148.243 66.0422 147.995 66.5481 147.665 66.9999C147.191 67.7819 146.739 68.3739 146.66 68.3259C146.802 67.7833 147.051 67.2749 147.394 66.8309Z" fill="#263238"/>
<path d="M142.278 62.569C142.658 62.1597 143.106 61.8187 143.601 61.561C143.306 62.0346 142.932 62.4541 142.495 62.801C141.827 63.427 141.239 63.879 141.172 63.812C141.105 63.745 141.604 63.186 142.278 62.569Z" fill="#263238"/>
<path d="M138.487 57.093C138.964 56.8019 139.487 56.5933 140.033 56.476C139.621 56.8533 139.147 57.1577 138.633 57.376C138.166 57.6857 137.64 57.8958 137.088 57.993C137.042 57.907 137.673 57.507 138.487 57.093Z" fill="#263238"/>
<path d="M136.306 50.803C136.844 50.6478 137.405 50.5876 137.963 50.625C137.465 50.8794 136.927 51.0452 136.373 51.115C135.838 51.2853 135.275 51.3458 134.716 51.293C135.208 51.0256 135.749 50.859 136.306 50.803Z" fill="#263238"/>
<path d="M135.902 44.17C136.461 44.1642 137.017 44.2545 137.546 44.437C136.999 44.5485 136.436 44.5647 135.883 44.485C135.324 44.5073 134.765 44.4165 134.242 44.218C134.785 44.0808 135.352 44.0644 135.902 44.17Z" fill="#263238"/>
<path d="M137.285 37.641C137.822 37.7932 138.332 38.0295 138.796 38.341C138.239 38.2963 137.693 38.1612 137.18 37.941C136.635 37.8105 136.122 37.5725 135.67 37.241C136.23 37.2633 136.779 37.3994 137.285 37.641Z" fill="#263238"/>
<path d="M140.373 31.743C140.853 32.0315 141.283 32.3967 141.645 32.824C141.12 32.6337 140.631 32.3561 140.198 32.003C139.445 31.485 138.879 31.003 138.926 30.922C139.459 31.0956 139.951 31.3748 140.373 31.743Z" fill="#263238"/>
<path d="M144.924 26.884C145.312 27.2868 145.627 27.7537 145.855 28.264C145.795 28.318 145.264 27.787 144.679 27.084C144.094 26.381 143.679 25.768 143.747 25.707C143.815 25.646 144.348 26.174 144.924 26.884Z" fill="#263238"/>
<path d="M150.616 23.418C150.884 23.9125 151.062 24.4509 151.141 25.008C150.783 24.5786 150.507 24.0871 150.327 23.558C150.045 23.0693 149.865 22.5283 149.799 21.968C149.885 21.917 150.242 22.581 150.616 23.418Z" fill="#263238"/>
<path d="M157.02 21.615C157.144 22.1604 157.171 22.7232 157.1 23.278C156.872 22.7677 156.736 22.2208 156.7 21.663C156.563 21.1195 156.535 20.5543 156.618 20C156.86 20.5056 156.997 21.055 157.02 21.615Z" fill="#263238"/>
<path d="M163.68 21.592C163.653 22.1504 163.53 22.7001 163.317 23.217C163.237 22.664 163.253 22.1013 163.365 21.554C163.377 20.9937 163.5 20.4414 163.727 19.929C163.824 20.4808 163.808 21.0465 163.68 21.592Z" fill="#263238"/>
<path d="M170.1 23.352C169.927 23.8838 169.659 24.3803 169.311 24.818C169.385 24.2632 169.554 23.7253 169.811 23.228C169.97 22.6911 170.239 22.193 170.6 21.765C170.543 22.3224 170.373 22.8623 170.1 23.352Z" fill="#263238"/>
<path d="M175.811 26.776C175.5 27.2403 175.11 27.6465 174.659 27.976C174.875 27.4606 175.18 26.9869 175.559 26.576C176.121 25.854 176.633 25.304 176.71 25.376C176.787 25.448 176.373 26.063 175.811 26.776Z" fill="#263238"/>
<path d="M180.399 31.603C179.975 31.9671 179.491 32.2544 178.968 32.452C179.315 32.0137 179.736 31.6391 180.211 31.345C180.625 30.9671 181.112 30.6782 181.642 30.496C181.7 30.572 181.142 31.069 180.399 31.603Z" fill="#263238"/>
<path d="M183.525 37.492C183.018 37.7276 182.473 37.8737 181.916 37.924C182.371 37.597 182.878 37.3498 183.416 37.193C183.917 36.942 184.463 36.7951 185.022 36.761C184.577 37.103 184.068 37.3517 183.525 37.492Z" fill="#263238"/>
<path d="M184.96 43.986C184.409 44.0699 183.848 44.0699 183.296 43.986C183.822 43.7997 184.373 43.6925 184.931 43.668C185.48 43.5484 186.048 43.5538 186.594 43.684C186.075 43.8932 185.519 43.9959 184.96 43.986Z" fill="#263238"/>
<path d="M149.251 14.819L149.151 14.864L148.858 14.982C148.604 15.09 148.222 15.221 147.736 15.433C146.365 16.0063 145.034 16.6705 143.751 17.421C142.937 17.892 142.075 18.454 141.169 19.087C140.206 19.764 139.286 20.4987 138.412 21.287C134.349 24.868 131.246 29.4075 129.384 34.493C128.948 35.657 128.621 36.793 128.338 37.861C128.079 38.8529 127.873 39.858 127.721 40.872C127.49 42.3392 127.357 43.8201 127.321 45.305C127.296 45.833 127.321 46.24 127.321 46.517V46.835C127.324 46.8709 127.324 46.907 127.321 46.943C127.317 46.9097 127.317 46.8762 127.321 46.843V46.525C127.321 46.248 127.286 45.841 127.302 45.313C127.313 43.8224 127.431 42.3346 127.655 40.861C127.789 39.926 127.995 38.912 128.255 37.834C128.542 36.6878 128.888 35.5573 129.292 34.447C131.144 29.3272 134.266 24.7613 138.364 21.177C139.296 20.347 140.243 19.632 141.14 18.977C141.974 18.3751 142.842 17.8219 143.74 17.32C145.031 16.5775 146.374 15.9272 147.757 15.374C148.243 15.174 148.634 15.056 148.895 14.951L149.195 14.851C149.213 14.84 149.232 14.8303 149.252 14.822L149.251 14.819Z" fill="white"/>
<path d="M158.824 12.962C158.497 13.0298 158.165 13.0732 157.831 13.092C157.215 13.156 156.369 13.248 155.431 13.369C154.493 13.49 153.653 13.617 153.043 13.712C152.716 13.7792 152.384 13.8216 152.051 13.839C152.367 13.7286 152.693 13.6476 153.024 13.597C153.631 13.473 154.474 13.327 155.409 13.206C156.344 13.085 157.199 13.006 157.819 12.974C158.153 12.9384 158.489 12.9344 158.824 12.962Z" fill="white"/>
<g opacity="0.4">
<path opacity="0.4" d="M137.419 63.285C137.419 63.285 152.342 86.836 175.493 74.774C199.661 62.181 186.305 33.317 186.305 33.317C186.305 33.317 197.676 56.317 174.119 71.317C168.252 75.054 161.864 75.057 156.992 74.567C144.542 73.321 137.419 63.285 137.419 63.285Z" fill="black"/>
</g>
<path d="M168.462 30.668C168.605 34.8915 168.477 39.1198 168.08 43.327C168.002 44.8561 167.697 46.365 167.174 47.804C166.641 49.2544 165.565 50.4411 164.174 51.114C163.475 51.4292 162.696 51.5196 161.943 51.3727C161.191 51.2259 160.503 50.8489 159.974 50.294L168.462 30.668Z" fill="#E0E0E0"/>
<path d="M159.809 43.703L170.274 26.08L163.959 45.98L160.731 46.944L159.809 43.703Z" fill="#0097C2"/>
<g opacity="0.4">
<path opacity="0.4" d="M170.274 26.079L162.512 44.087L163.958 45.976L170.274 26.079Z" fill="black"/>
</g>
<path d="M160.731 50.308C161.397 50.308 162.048 50.1104 162.602 49.7403C163.156 49.3703 163.588 48.8443 163.843 48.2288C164.098 47.6134 164.164 46.9362 164.034 46.2829C163.904 45.6296 163.584 45.0294 163.113 44.5584C162.642 44.0874 162.041 43.7666 161.388 43.6367C160.735 43.5067 160.058 43.5734 159.442 43.8283C158.827 44.0833 158.301 44.5149 157.931 45.0688C157.561 45.6227 157.363 46.2738 157.363 46.94C157.363 47.3823 157.45 47.8202 157.619 48.2288C157.789 48.6375 158.037 49.0087 158.35 49.3215C158.662 49.6342 159.034 49.8823 159.442 50.0516C159.851 50.2208 160.289 50.308 160.731 50.308Z" fill="#FAFAFA"/>
<path d="M164.099 46.94C164.068 46.6663 164.023 46.3946 163.962 46.126C163.767 45.4004 163.335 44.7611 162.734 44.31C162.293 43.978 161.776 43.7618 161.23 43.6813C160.684 43.6007 160.127 43.6584 159.609 43.849C159.311 43.9541 159.031 44.1052 158.779 44.297C158.51 44.4913 158.273 44.7276 158.079 44.997C157.666 45.5605 157.443 46.2411 157.443 46.94C157.443 47.6388 157.666 48.3194 158.079 48.883C158.451 49.389 158.959 49.7793 159.543 50.0085C160.128 50.2378 160.766 50.2966 161.382 50.1783C161.999 50.0599 162.569 49.7691 163.028 49.3397C163.486 48.9102 163.813 48.3597 163.971 47.752C164.033 47.4837 164.079 47.2118 164.108 46.938C164.128 47.2167 164.103 47.4969 164.035 47.768C163.861 48.5262 163.43 49.2006 162.814 49.676C162.392 50.0038 161.898 50.2272 161.373 50.328C160.769 50.4433 160.146 50.3949 159.567 50.188C159.253 50.0794 158.958 49.9218 158.693 49.721C158.412 49.5176 158.165 49.2708 157.961 48.99C157.523 48.4005 157.287 47.6857 157.287 46.9515C157.287 46.2172 157.523 45.5024 157.961 44.913C158.165 44.6325 158.412 44.3858 158.693 44.182C158.959 43.9838 159.254 43.8273 159.567 43.718C160.017 43.5543 160.496 43.4875 160.974 43.5219C161.452 43.5564 161.916 43.6913 162.338 43.9179C162.76 44.1445 163.129 44.4576 163.422 44.8367C163.714 45.2158 163.923 45.6524 164.035 46.118C164.099 46.3853 164.12 46.661 164.099 46.935V46.94Z" fill="#263238"/>
<path d="M163.198 47.444C163.296 46.9583 163.248 46.4544 163.06 45.9961C162.871 45.5378 162.551 45.1456 162.14 44.869C161.729 44.5924 161.245 44.4439 160.75 44.4423C160.254 44.4406 159.77 44.5858 159.357 44.8597C158.944 45.1335 158.621 45.5235 158.43 45.9806C158.239 46.4376 158.187 46.9411 158.282 47.4275C158.377 47.9138 158.613 48.3611 158.962 48.7129C159.311 49.0647 159.756 49.3052 160.242 49.404C160.565 49.4698 160.897 49.4712 161.221 49.4083C161.544 49.3454 161.852 49.2192 162.127 49.0372C162.401 48.8551 162.637 48.6207 162.821 48.3473C163.005 48.0739 163.133 47.7669 163.198 47.444Z" fill="#455A64"/>
<path d="M134.181 127.768H150.749L143.025 61.198L134.181 127.768Z" fill="#E0E0E0"/>
<path d="M52.66 61.198L41.873 128.552L133.917 129.752L143.025 61.198H52.66Z" fill="#FAFAFA"/>
<path d="M138.925 92.052H47.718L49.702 79.652H140.573L138.925 92.052Z" fill="#EBEBEB"/>
<path d="M138.932 92.063H47.708L49.695 79.663H140.582L138.932 92.063ZM47.732 92.047H138.924L140.568 79.647H49.712L47.732 92.047Z" fill="#263238"/>
<path d="M52.66 61.198L49.702 79.652H140.573L143.024 61.199L52.66 61.198Z" fill="#0097C2"/>
<path d="M52.673 61.1979L143.037 61.1219H143.123V61.208C140.462 81.277 137.441 104.036 134.248 128.073V128.146H133.142L41.951 128.121H41.862V128.041L52.673 61.1979C52.584 61.7509 48.473 87.576 42.03 128.073L41.963 127.993H134.153L134.074 128.063C137.274 104.026 140.297 81.27 142.974 61.202L143.047 61.285L52.673 61.1979Z" fill="#263238"/>
<path d="M140.573 79.652C140.573 79.697 120.221 79.735 95.141 79.735C70.061 79.735 49.702 79.697 49.702 79.652C49.702 79.607 70.054 79.569 95.14 79.569C120.226 79.569 140.573 79.604 140.573 79.652Z" fill="#263238"/>
<path d="M138.926 92.052C138.926 92.1 118.466 92.135 93.236 92.135C68.006 92.135 47.542 92.101 47.542 92.052C47.542 92.003 67.995 91.969 93.235 91.969C118.475 91.969 138.926 92.009 138.926 92.052Z" fill="#263238"/>
<path d="M137.068 103.467C137.068 103.514 116.612 103.549 91.382 103.549C66.152 103.549 45.676 103.514 45.676 103.467C45.676 103.42 66.13 103.384 91.369 103.384C116.608 103.384 137.068 103.422 137.068 103.467Z" fill="#263238"/>
<path d="M135.215 114.88C135.215 114.924 114.755 114.962 89.525 114.962C64.295 114.962 43.832 114.924 43.832 114.88C43.832 114.836 64.285 114.797 89.525 114.797C114.765 114.797 135.215 114.835 135.215 114.88Z" fill="#263238"/>
<path d="M54.794 128.165C54.749 128.165 56.419 117.29 58.527 103.896C60.635 90.502 62.375 79.642 62.419 79.652C62.463 79.662 60.794 90.521 58.689 103.921C56.584 117.321 54.842 128.172 54.794 128.165Z" fill="#263238"/>
<path d="M68.859 128.165C68.811 128.165 70.484 117.29 72.589 103.896C74.694 90.502 76.437 79.642 76.489 79.652C76.541 79.662 74.864 90.521 72.756 103.921C70.648 117.321 68.891 128.172 68.859 128.165Z" fill="#263238"/>
<path d="M81.928 127.679C81.884 127.679 83.537 116.915 85.62 103.654C87.703 90.393 89.436 79.642 89.477 79.654C89.518 79.666 87.868 90.415 85.785 103.682C83.702 116.949 81.969 127.685 81.928 127.679Z" fill="#263238"/>
<path d="M94.854 128.064C94.81 128.064 96.476 117.21 98.578 103.845C100.68 90.48 102.419 79.645 102.464 79.652C102.509 79.659 100.842 90.499 98.742 103.87C96.642 117.241 94.899 128.07 94.854 128.064Z" fill="#263238"/>
<path d="M107.842 128.064C107.797 128.064 109.463 117.21 111.565 103.845C113.667 90.48 115.407 79.645 115.451 79.652C115.495 79.659 113.833 90.499 111.731 103.87C109.629 117.241 107.892 128.07 107.842 128.064Z" fill="#263238"/>
<path d="M120.825 128.121C120.781 128.121 122.45 117.255 124.555 103.867C126.66 90.4789 128.4 79.63 128.448 79.639C128.496 79.648 126.823 90.502 124.718 103.893C122.613 117.284 120.87 128.14 120.825 128.121Z" fill="#263238"/>
<g opacity="0.2">
<path opacity="0.2" d="M112.652 80.517C113.412 80.1175 114.071 79.5517 114.582 78.8617C115.092 78.1717 115.44 77.3753 115.6 76.532C115.906 74.8455 116.04 73.1324 116 71.419C115.96 69.6995 116.352 67.9975 117.138 66.468C117.657 65.6 118.385 64.878 118.96 64.042C119.277 63.6425 119.51 63.1831 119.646 62.6913C119.782 62.1996 119.817 61.6856 119.749 61.18L109.961 61.231L112.652 80.517Z" fill="black"/>
</g>
<path d="M72.07 92.973C72.0425 93.0157 72.0088 93.0541 71.97 93.087L71.677 93.405C71.419 93.669 71.041 94.041 70.564 94.505C69.61 95.421 68.284 96.667 66.774 98.005C65.264 99.343 63.864 100.505 62.837 101.332C62.322 101.745 61.902 102.076 61.609 102.286L61.269 102.54C61.2311 102.573 61.1882 102.6 61.142 102.62C61.1733 102.585 61.2067 102.551 61.242 102.52L61.56 102.24L62.752 101.232C63.763 100.383 65.152 99.203 66.652 97.874C68.152 96.545 69.514 95.311 70.468 94.417L71.632 93.352L71.95 93.069C71.9859 93.0306 72.0266 92.997 72.071 92.969L72.07 92.973Z" fill="#263238"/>
<path d="M71.335 102.745C71.2001 102.627 71.0737 102.499 70.957 102.363L69.957 101.301C69.098 100.389 67.947 99.161 66.678 97.801L63.365 94.335L62.365 93.282C62.2382 93.157 62.1202 93.0233 62.012 92.882C62.1558 92.9883 62.2897 93.1075 62.412 93.238C62.66 93.473 63.012 93.82 63.452 94.252C64.323 95.117 65.513 96.328 66.801 97.69C68.089 99.052 69.234 100.304 70.048 101.223C70.455 101.681 70.783 102.056 71.002 102.317C71.1263 102.448 71.2381 102.591 71.336 102.743L71.335 102.745Z" fill="#263238"/>
<path d="M74.732 95.895C74.732 95.895 74.764 95.812 74.832 95.65C74.9376 95.4146 75.0655 95.1899 75.214 94.979C75.7987 94.1622 76.6232 93.5478 77.573 93.221C78.2534 92.9748 78.9791 92.8793 79.7 92.941C80.5587 93.0244 81.3862 93.3065 82.117 93.765C82.9608 94.2849 83.6736 94.9922 84.2 95.832C84.809 96.7695 85.1122 97.8729 85.068 98.99C85.0319 99.5932 84.8448 100.178 84.524 100.69C84.1884 101.221 83.7414 101.672 83.214 102.013C82.0907 102.733 80.7682 103.08 79.436 103.002C78.7384 102.965 78.0513 102.815 77.401 102.56C76.7243 102.296 76.1156 101.883 75.62 101.352C75.3739 101.072 75.1663 100.761 75.003 100.426C74.8475 100.085 74.7404 99.723 74.685 99.352C74.5793 98.591 74.6456 97.816 74.879 97.084C75.3655 95.558 76.4198 94.2774 77.824 93.507C78.552 93.1072 79.3619 92.8796 80.1916 92.8416C81.0212 92.8037 81.8485 92.9564 82.61 93.288C83.3991 93.6204 84.09 94.1491 84.617 94.824C85.1446 95.517 85.4744 96.3403 85.571 97.206C85.6811 98.0839 85.5389 98.975 85.161 99.775C84.9669 100.177 84.7116 100.546 84.404 100.869C84.0915 101.188 83.7388 101.465 83.355 101.693C82.5805 102.12 81.7265 102.382 80.8461 102.464C79.9658 102.546 79.078 102.446 78.238 102.17C77.4109 101.916 76.6505 101.482 76.012 100.898C75.3782 100.313 74.9453 99.5433 74.775 98.698C74.5958 97.8677 74.714 97.0009 75.109 96.249C75.3093 95.8784 75.5845 95.5536 75.917 95.295C76.2442 95.0481 76.6093 94.8559 76.998 94.726C77.7617 94.481 78.5627 94.3734 79.364 94.408C80.1442 94.4135 80.9203 94.5204 81.673 94.726C82.4171 94.9217 83.1047 95.29 83.68 95.801C84.2312 96.3149 84.6072 96.9889 84.755 97.728C84.9009 98.4419 84.8582 99.1816 84.631 99.874C84.406 100.542 84.0255 101.147 83.521 101.639C82.5631 102.576 81.2944 103.128 79.956 103.191C79.3298 103.224 78.7032 103.133 78.112 102.924C77.5445 102.72 77.0343 102.383 76.624 101.941C76.2356 101.519 75.9417 101.019 75.762 100.475C75.5849 99.9644 75.5061 99.4249 75.53 98.885C75.5755 97.8852 75.9745 96.934 76.656 96.201C77.2386 95.5637 77.9756 95.0873 78.796 94.818C79.4849 94.5947 80.2146 94.5264 80.933 94.618C81.9258 94.7403 82.8695 95.1195 83.671 95.718C83.8789 95.8701 84.0754 96.0372 84.259 96.218C84.383 96.342 84.443 96.409 84.443 96.409C84.443 96.409 84.373 96.349 84.249 96.231C84.0594 96.0553 83.859 95.8917 83.649 95.741C82.8465 95.1592 81.9083 94.7925 80.924 94.676C80.1478 94.5863 79.3615 94.6838 78.6307 94.9604C77.9 95.2371 77.2462 95.6847 76.724 96.266C76.06 96.9831 75.6732 97.9134 75.633 98.89C75.6114 99.4193 75.6901 99.9479 75.865 100.448C76.0424 100.976 76.3297 101.46 76.708 101.869C77.1062 102.298 77.6014 102.625 78.152 102.823C78.7297 103.024 79.3411 103.111 79.952 103.078C81.2583 103.013 82.4953 102.471 83.428 101.554C83.9155 101.078 84.283 100.493 84.5 99.847C84.7175 99.1773 84.7568 98.4625 84.614 97.773C84.4708 97.0638 84.1096 96.417 83.581 95.923C83.0216 95.431 82.3553 95.0759 81.635 94.886C80.8947 94.6833 80.1315 94.5764 79.364 94.568C78.5817 94.5384 77.8002 94.646 77.055 94.886C76.2949 95.1185 75.6515 95.6311 75.255 96.32C74.8784 97.0391 74.7659 97.8675 74.937 98.661C75.1017 99.4719 75.519 100.21 76.129 100.769C76.7475 101.341 77.4863 101.767 78.291 102.016C79.1085 102.285 79.9726 102.382 80.8294 102.302C81.6862 102.222 82.5174 101.966 83.271 101.551C83.6434 101.331 83.9845 101.062 84.285 100.751C84.5802 100.441 84.8258 100.087 85.013 99.702C85.3796 98.9302 85.5184 98.0699 85.413 97.222C85.3216 96.387 85.0061 95.5923 84.5 94.922C83.9905 94.2697 83.3227 93.7585 82.56 93.437C81.8211 93.1142 81.018 92.9652 80.2126 93.0016C79.4071 93.038 78.6207 93.2588 77.914 93.647C76.545 94.3971 75.5167 95.6448 75.042 97.132C74.8154 97.8419 74.7492 98.5933 74.848 99.332C74.9053 99.6904 75.0123 100.039 75.166 100.368C75.3231 100.69 75.5218 100.989 75.757 101.259C76.2366 101.773 76.8254 102.173 77.48 102.429C78.116 102.68 78.7882 102.829 79.471 102.868C80.774 102.947 82.0689 102.614 83.171 101.914C83.6804 101.602 84.1095 101.174 84.4237 100.666C84.7379 100.158 84.9284 99.5832 84.98 98.988C85.0246 97.8953 84.7301 96.8157 84.137 95.897C83.6246 95.0685 82.9287 94.3689 82.103 93.852C81.3856 93.3976 80.5727 93.1156 79.728 93.028C78.879 92.9524 78.0248 93.0944 77.2459 93.4405C76.4669 93.7865 75.789 94.3253 75.276 95.006C75.1239 95.2132 74.992 95.4346 74.882 95.667C74.8267 95.7394 74.7766 95.8156 74.732 95.895Z" fill="#0097C2"/>
<path d="M83.342 104.675C83.371 104.71 80.849 106.866 77.707 109.493C74.565 112.12 71.983 114.215 71.964 114.18C71.945 114.145 74.457 111.989 77.599 109.366C80.741 106.743 83.318 104.64 83.342 104.675Z" fill="#263238"/>
<path d="M83.897 113.896C83.7472 113.809 83.6056 113.709 83.474 113.596L82.355 112.725C81.417 111.981 80.129 110.944 78.711 109.793C77.293 108.642 76.018 107.593 75.098 106.826L74.014 105.91C73.8767 105.805 73.7489 105.688 73.632 105.561C73.7809 105.649 73.9224 105.75 74.055 105.861L75.171 106.732C76.109 107.476 77.397 108.513 78.815 109.664C80.233 110.815 81.508 111.864 82.431 112.631L83.512 113.544C83.6485 113.652 83.7772 113.77 83.897 113.896Z" fill="#263238"/>
<path d="M109.893 104.799C109.918 104.834 107.508 106.682 104.503 108.933C101.498 111.184 99.043 112.962 99.014 112.924C98.985 112.886 101.399 111.041 104.404 108.79C107.409 106.539 109.864 104.761 109.893 104.799Z" fill="#263238"/>
<path d="M110.828 112.622C110.806 112.66 108.243 111.073 105.104 109.073C101.965 107.073 99.45 105.425 99.472 105.384C99.494 105.343 102.058 106.936 105.196 108.933C108.334 110.93 110.866 112.584 110.828 112.622Z" fill="#263238"/>
<path d="M83.76 128.066C83.725 128.035 86.231 125.408 89.354 122.206C92.477 119.004 95.037 116.425 95.078 116.456C95.119 116.487 92.607 119.115 89.484 122.32C86.361 125.525 83.792 128.098 83.76 128.066Z" fill="#0097C2"/>
<path d="M94.352 128.064C94.3158 128.029 94.2824 127.992 94.252 127.952L93.985 127.634C93.737 127.316 93.406 126.906 93.002 126.404C92.172 125.367 90.995 123.958 89.631 122.461C88.267 120.964 86.973 119.661 86.019 118.74L84.887 117.627L84.569 117.327C84.5318 117.294 84.4982 117.256 84.469 117.216C84.512 117.241 84.5525 117.269 84.59 117.302L84.908 117.578C85.191 117.82 85.592 118.178 86.081 118.631C87.054 119.531 88.364 120.825 89.735 122.326C91.106 123.827 92.279 125.252 93.074 126.307C93.481 126.835 93.802 127.261 94.028 127.579L94.273 127.929C94.3048 127.971 94.3313 128.016 94.352 128.064Z" fill="#0097C2"/>
<path d="M68.321 114.689C68.321 114.689 68.421 122.502 66.451 127.18L54.434 125.132C54.434 125.132 58.053 117.732 57.067 113.614L68.321 114.689Z" fill="#EBEBEB"/>
<path d="M68.318 114.396C68.318 114.396 66.811 123.987 65.889 126.849L53.942 124.477C53.942 124.477 56.4 115.204 56.368 112.622L68.318 114.396Z" fill="#0097C2"/>
<path d="M57.582 116.921C57.582 116.965 59.356 117.379 61.566 117.843C63.776 118.307 65.573 118.648 65.582 118.606C65.591 118.564 63.808 118.148 61.597 117.684C59.386 117.22 57.592 116.876 57.582 116.921Z" fill="white"/>
<path d="M57.277 118.952C57.277 118.996 59.051 119.407 61.262 119.874C63.473 120.341 65.269 120.679 65.278 120.637C65.287 120.595 63.504 120.179 61.294 119.715C59.084 119.251 57.286 118.899 57.277 118.952Z" fill="white"/>
<path d="M59.033 121.252C59.2366 121.341 59.4501 121.405 59.669 121.443C60.079 121.543 60.648 121.672 61.275 121.805C61.902 121.938 62.475 122.047 62.894 122.123C63.1163 122.179 63.3448 122.207 63.574 122.206C63.3626 122.117 63.1419 122.052 62.916 122.012C62.509 121.912 61.94 121.78 61.31 121.649C60.68 121.518 60.11 121.405 59.695 121.332C59.4788 121.278 59.2568 121.252 59.034 121.252H59.033Z" fill="white"/>
<path d="M125.175 92.752C125.175 92.752 126.406 100.365 125.159 105.221L113.126 104.963C113.126 104.963 115.587 97.21 114.026 93.334L125.175 92.752Z" fill="#EBEBEB"/>
<path d="M125.121 92.464C125.121 92.464 125.041 102.039 124.555 104.964L112.542 104.392C112.542 104.392 113.595 94.979 113.178 92.464H125.121Z" fill="#455A64"/>
<path d="M114.885 96.725C114.885 96.77 116.691 96.808 118.92 96.811C121.149 96.814 122.959 96.782 122.959 96.738C122.959 96.694 121.153 96.655 118.92 96.652C116.687 96.649 114.885 96.68 114.885 96.725Z" fill="white"/>
<path d="M114.999 98.752C114.999 98.796 116.805 98.834 119.034 98.838C121.263 98.842 123.072 98.809 123.072 98.764C123.072 98.719 121.266 98.682 119.034 98.679C116.802 98.676 114.999 98.706 114.999 98.752Z" fill="white"/>
<path d="M117.152 100.617C117.374 100.665 117.6 100.685 117.827 100.678C118.243 100.678 118.819 100.7 119.455 100.703C120.091 100.706 120.663 100.703 121.08 100.681C121.306 100.69 121.532 100.672 121.754 100.627C121.533 100.58 121.306 100.561 121.08 100.57C120.663 100.554 120.091 100.544 119.455 100.541C118.819 100.538 118.243 100.541 117.827 100.563C117.601 100.554 117.374 100.572 117.152 100.617Z" fill="white"/>
<path d="M127.719 70.799C126.533 70.7553 125.379 70.3965 124.377 69.7594C123.376 69.1223 122.562 68.2299 122.019 67.174C120.863 64.9667 120.505 62.4279 121.005 59.987C121.251 58.514 121.874 57.1298 122.814 55.9695C123.754 54.8091 124.979 53.9121 126.369 53.366C128.579 52.657 132.529 53.048 134.392 56.166C135.28 57.6913 135.721 59.4358 135.664 61.2C135.647 61.4529 135.531 61.6888 135.34 61.856C135.245 61.9383 135.136 62.0015 135.017 62.042C134.868 62.0922 134.709 62.105 134.554 62.0792C134.399 62.0534 134.253 61.9898 134.128 61.894C134.003 61.7983 133.904 61.6732 133.839 61.53C133.774 61.3868 133.746 61.2298 133.756 61.073C133.773 59.6958 133.42 58.3393 132.732 57.146C131.295 54.746 128.144 54.793 126.932 55.181C124.706 55.893 123.281 58.3 122.852 60.371C122.44 62.3745 122.734 64.4587 123.682 66.271C124.093 67.1015 124.743 67.7905 125.548 68.2499C126.353 68.7093 127.277 68.9182 128.201 68.85C128.451 68.8116 128.706 68.8742 128.91 69.024C129.114 69.1737 129.25 69.3984 129.289 69.6485C129.327 69.8986 129.264 70.1536 129.114 70.3576C128.965 70.5615 128.74 70.6976 128.49 70.736C128.234 70.7755 127.976 70.7956 127.717 70.796L127.719 70.799Z" fill="#263238"/>
<path d="M66.13 70.799C64.9435 70.7556 63.79 70.3969 62.7882 69.7598C61.7864 69.1226 60.9724 68.2301 60.43 67.174C59.2726 64.9672 58.913 62.4284 59.412 59.987C59.968 57.303 61.851 54.212 64.818 53.36C66.2485 52.9727 67.7649 53.0493 69.149 53.579L68.462 55.36C67.4661 54.9814 66.377 54.9223 65.346 55.191C63.158 55.827 61.734 58.25 61.295 60.371C60.8833 62.3745 61.1765 64.4588 62.125 66.271C62.5362 67.1029 63.1865 67.793 63.9926 68.2529C64.7986 68.7127 65.7236 68.9213 66.649 68.852L66.938 70.738C66.6707 70.7791 66.4005 70.7992 66.13 70.798V70.799Z" fill="#263238"/>
<path d="M126.934 61.252L126.056 66.052H138.97L140.118 61.295L126.934 61.252Z" fill="#0097C2"/>
<path d="M69.402 70.039C69.4024 70.5143 69.2379 70.9751 68.9366 71.3428C68.6352 71.7105 68.2157 71.9622 67.7495 72.0551C67.2833 72.1481 66.7993 72.0764 66.38 71.8524C65.9607 71.6283 65.6321 71.2658 65.4503 70.8266C65.2684 70.3874 65.2445 69.8987 65.3827 69.4438C65.5208 68.9889 65.8125 68.5961 66.2079 68.3322C66.6033 68.0684 67.078 67.9498 67.5511 67.9968C68.0241 68.0438 68.4662 68.2534 68.802 68.59C69.1858 68.9746 69.4015 69.4956 69.402 70.039Z" fill="#263238"/>
<path d="M130.942 70.039C130.942 70.5146 130.778 70.9757 130.477 71.3436C130.175 71.7115 129.755 71.9635 129.289 72.0565C128.822 72.1495 128.338 72.0778 127.919 71.8537C127.499 71.6296 127.17 71.2668 126.988 70.8274C126.806 70.3879 126.782 69.8989 126.921 69.4438C127.059 68.9887 127.351 68.5957 127.746 68.3317C128.142 68.0677 128.617 67.9492 129.09 67.9963C129.564 68.0434 130.006 68.2532 130.342 68.59C130.532 68.7802 130.683 69.0061 130.786 69.2547C130.889 69.5034 130.942 69.7699 130.942 70.039Z" fill="#263238"/>
<path d="M97.049 30.28L93.672 43.089L82.014 44.342V46.409L98.394 46.985L101.473 32.615L97.049 30.28Z" fill="#FFAAAA"/>
<path d="M101.962 47.324C101.962 47.324 83.747 46.456 78.562 50.504C73.377 54.552 75.888 61.198 75.888 61.198L105.2 61.122L107.789 46.262L101.962 47.324Z" fill="#263238"/>
<path d="M105.063 57.128C104.975 57.1302 104.886 57.1239 104.799 57.109C104.627 57.09 104.376 57.065 104.052 57.023C103.416 56.944 102.462 56.81 101.317 56.616C98.3127 56.1048 95.341 55.4179 92.417 54.559C90.706 54.053 89.088 53.545 87.593 53.173C86.2737 52.8315 84.9244 52.6185 83.564 52.537C82.6463 52.4856 81.7257 52.5389 80.82 52.696C80.502 52.734 80.257 52.817 80.085 52.845C80.0001 52.8661 79.9139 52.8821 79.827 52.893C79.9078 52.858 79.9919 52.8312 80.078 52.813C80.317 52.7385 80.5601 52.6781 80.806 52.632C81.7139 52.4485 82.6408 52.377 83.566 52.419C84.9458 52.4846 86.3157 52.6879 87.655 53.026C89.155 53.388 90.781 53.897 92.485 54.403C95.3942 55.2563 98.3458 55.9572 101.328 56.503C102.476 56.713 103.408 56.862 104.054 56.964L104.798 57.082C104.888 57.0916 104.978 57.1086 105.065 57.133L105.063 57.128Z" fill="#455A64"/>
<path d="M88.133 53.074C87.627 52.6569 87.0879 52.2816 86.521 51.952C85.9267 51.6739 85.3111 51.4442 84.68 51.265C84.8758 51.2478 85.0732 51.2672 85.262 51.322C85.7271 51.4219 86.1765 51.5844 86.598 51.805C87.0189 52.0269 87.4083 52.304 87.756 52.629C87.9084 52.7527 88.0365 52.9036 88.134 53.074H88.133Z" fill="#455A64"/>
<path d="M103.893 86.918L104.137 94.572L102.598 100.684C102.573 100.789 102.57 100.897 102.589 101.003C102.608 101.109 102.648 101.21 102.708 101.3C102.768 101.389 102.845 101.466 102.936 101.524C103.027 101.582 103.129 101.621 103.236 101.638C103.359 101.661 103.486 101.653 103.605 101.617C103.725 101.58 103.834 101.516 103.923 101.428C105.081 100.296 109.329 96.111 109.275 95.555C109.218 94.919 109.552 87.455 109.552 87.455L103.893 86.918Z" fill="#0097C2"/>
<g opacity="0.6">
<path opacity="0.6" d="M103.206 101.652L109.248 95.052V95.37C109.251 95.6511 109.154 95.9241 108.974 96.14C108.494 96.716 107.13 98.277 103.921 101.44C103.829 101.531 103.717 101.597 103.593 101.634C103.469 101.671 103.338 101.676 103.212 101.65L103.206 101.652Z" fill="white"/>
</g>
<g opacity="0.6">
<path opacity="0.6" d="M107.642 92.591C107.545 92.6622 107.479 92.767 107.456 92.8848C107.433 93.0026 107.455 93.1247 107.518 93.227C107.585 93.3222 107.686 93.3884 107.8 93.412C107.914 93.4356 108.033 93.4148 108.132 93.354C108.232 93.2802 108.3 93.1716 108.324 93.0497C108.347 92.9279 108.324 92.8016 108.259 92.696C108.18 92.6028 108.068 92.544 107.946 92.532C107.824 92.5201 107.703 92.5559 107.607 92.632" fill="white"/>
</g>
<path d="M104.925 98.286C104.881 98.309 104.703 97.911 104.248 97.698C103.967 97.5874 103.666 97.5334 103.364 97.539C103.364 97.52 103.453 97.46 103.631 97.431C103.867 97.4023 104.106 97.4418 104.321 97.545C104.535 97.6481 104.715 97.8105 104.84 98.013C104.929 98.169 104.942 98.28 104.925 98.286Z" fill="#263238"/>
<path d="M104.389 99.32C104.169 99.2001 103.941 99.0939 103.708 99.002C103.46 98.9578 103.21 98.9281 102.958 98.913C103.075 98.8376 103.208 98.7916 103.347 98.7789C103.485 98.7662 103.624 98.7871 103.753 98.84C104.204 98.961 104.427 99.298 104.389 99.32Z" fill="#263238"/>
<path d="M105.927 96.952C105.602 96.7379 105.262 96.5477 104.91 96.383C104.537 96.2692 104.157 96.1843 103.771 96.129C104.172 96.045 104.588 96.078 104.97 96.2241C105.352 96.3703 105.685 96.6232 105.927 96.953V96.952Z" fill="#263238"/>
<path d="M106.049 94.63C106.03 94.678 105.604 94.503 105.049 94.49C104.494 94.477 104.063 94.611 104.049 94.563C104.358 94.393 104.706 94.3096 105.058 94.3213C105.41 94.3331 105.753 94.4398 106.049 94.63Z" fill="#263238"/>
<path d="M106.033 92.3809C105.698 92.2757 105.351 92.2168 105 92.206C104.652 92.2464 104.311 92.3352 103.988 92.47C104.047 92.3759 104.132 92.3008 104.233 92.2539C104.467 92.1216 104.729 92.0466 104.998 92.035C105.267 92.0233 105.534 92.0754 105.779 92.1869C105.954 92.2729 106.042 92.3619 106.033 92.3809Z" fill="#263238"/>
<path d="M105.009 91.777C104.989 91.6817 104.989 91.5833 105.009 91.488C105.033 91.222 105.109 90.9636 105.235 90.728C105.309 90.5465 105.442 90.3953 105.613 90.299C105.672 90.2726 105.738 90.2648 105.801 90.2768C105.865 90.2888 105.924 90.3199 105.969 90.366C106.051 90.4613 106.095 90.5833 106.093 90.709C106.078 90.9653 105.975 91.2087 105.801 91.3977C105.627 91.5867 105.393 91.7097 105.139 91.746C104.885 91.7741 104.629 91.7263 104.403 91.6086C104.176 91.4909 103.99 91.3087 103.867 91.085C103.836 91.0284 103.818 90.9659 103.814 90.9017C103.81 90.8375 103.819 90.7731 103.842 90.713C103.872 90.6559 103.918 90.6093 103.975 90.5791C104.032 90.5489 104.096 90.5367 104.16 90.544C104.349 90.5841 104.524 90.6727 104.668 90.801C104.877 90.9659 105.056 91.1659 105.196 91.392C105.252 91.4717 105.293 91.5612 105.317 91.656C105.115 91.3685 104.872 91.1125 104.595 90.896C104.466 90.79 104.313 90.7169 104.15 90.683C104.115 90.6771 104.078 90.6825 104.047 90.6985C104.015 90.7145 103.988 90.7402 103.972 90.772C103.961 90.8128 103.957 90.8556 103.963 90.8977C103.968 90.9398 103.982 90.9804 104.004 91.017C104.115 91.2066 104.279 91.3603 104.475 91.4595C104.672 91.5588 104.892 91.5996 105.111 91.577C105.328 91.5491 105.528 91.4477 105.679 91.2897C105.83 91.1317 105.922 90.9267 105.94 90.709C105.945 90.6217 105.918 90.5356 105.864 90.467C105.84 90.4393 105.807 90.4203 105.771 90.4129C105.735 90.4054 105.697 90.4101 105.664 90.426C105.524 90.5111 105.414 90.6362 105.346 90.785C105.178 91.094 105.064 91.4295 105.009 91.777Z" fill="#263238"/>
<path d="M107.772 46.262C107.772 46.262 99.895 61.152 99.787 63.752C99.679 66.352 99.787 90.298 99.787 90.298H111.979C112.297 90.298 114.126 79.508 113.753 77.025C113.38 74.542 112.068 61.192 112.068 61.192H119.083C120.228 59.9009 120.884 58.249 120.937 56.524C120.691 54.4374 120.043 52.4182 119.029 50.578C118.429 49.578 114.577 44.333 114.577 44.333L107.772 46.262Z" fill="#263238"/>
<path d="M107.242 47.27C107.233 47.2998 107.222 47.3286 107.207 47.356C107.178 47.42 107.14 47.499 107.092 47.598L106.635 48.527C106.428 48.927 106.183 49.421 105.897 49.99L105.439 50.903L104.959 51.943L102.596 57.06C102.148 58.014 101.677 59.035 101.187 60.081L100.446 61.671C100.207 62.221 100.026 62.7944 99.906 63.382C99.785 63.971 99.722 64.5706 99.718 65.172C99.699 65.767 99.686 66.355 99.677 66.93C99.677 68.087 99.655 69.201 99.658 70.263C99.658 72.387 99.683 74.301 99.705 75.907C99.727 77.513 99.747 78.801 99.763 79.723V81.123C99.757 81.0926 99.757 81.0613 99.763 81.031V80.764C99.763 80.513 99.737 80.169 99.718 79.727C99.686 78.827 99.645 77.527 99.61 75.911C99.575 74.295 99.537 72.394 99.527 70.267V66.929C99.527 66.35 99.546 65.762 99.569 65.164C99.5721 64.553 99.6348 63.9438 99.756 63.345C99.8791 62.7462 100.065 62.162 100.31 61.602L101.054 60.012L102.472 56.997L104.882 51.897L105.372 50.86C105.541 50.542 105.69 50.224 105.843 49.954L106.603 48.504C106.809 48.113 106.975 47.804 107.089 47.588C107.143 47.488 107.189 47.416 107.22 47.353C107.235 47.3281 107.243 47.2992 107.242 47.27Z" fill="#455A64"/>
<path d="M104.694 52.342C104.441 51.7368 104.228 51.1154 104.058 50.482C103.834 49.8652 103.653 49.2341 103.514 48.593C103.81 49.1808 104.045 49.7978 104.214 50.434C104.439 51.0518 104.6 51.6912 104.694 52.342Z" fill="#455A64"/>
<path d="M113.78 76.558C113.759 76.5038 113.746 76.4469 113.741 76.389C113.727 76.26 113.704 76.097 113.675 75.902C113.617 75.454 113.544 74.843 113.452 74.102C113.277 72.563 113.042 70.474 112.781 68.165C112.52 65.856 112.307 63.742 112.181 62.219C112.12 61.475 112.07 60.864 112.031 60.419C112.031 60.219 112.006 60.057 111.996 59.926C111.992 59.8687 111.992 59.8112 111.996 59.754C112.016 59.8079 112.028 59.8645 112.031 59.922C112.047 60.052 112.07 60.215 112.095 60.412C112.146 60.86 112.216 61.468 112.295 62.212C112.463 63.751 112.695 65.844 112.931 68.152C113.167 70.46 113.395 72.552 113.566 74.092C113.636 74.836 113.697 75.447 113.738 75.892C113.754 76.092 113.767 76.255 113.776 76.385C113.781 76.4422 113.781 76.4997 113.776 76.557L113.78 76.558Z" fill="#455A64"/>
<path d="M110.682 6.37896C110.632 5.74471 110.829 5.11559 111.231 4.62281C111.633 4.13002 112.211 3.8116 112.842 3.73396C113.479 3.68744 114.115 3.83246 114.669 4.15038C115.222 4.46829 115.668 4.94457 115.949 5.51796C116.219 6.09477 116.367 6.72097 116.384 7.35755C116.401 7.99412 116.287 8.62741 116.049 9.21796C115.731 10.018 115.143 10.837 114.287 10.9C113.874 10.8687 113.474 10.7457 113.115 10.54C112.756 10.3343 112.447 10.0511 112.211 9.71096" fill="#263238"/>
<path d="M101.73 12.688C99.186 7.11397 105.23 4.31197 108.513 5.24097C111.604 6.11497 112.924 7.65497 113.433 9.72197C113.99 11.7956 113.879 13.9923 113.115 15.999C112.966 16.5037 112.688 16.9609 112.309 17.3256C111.93 17.6904 111.462 17.95 110.952 18.079" fill="#263238"/>
<path d="M110.485 8.33496C110.747 8.36182 110.989 8.48639 111.163 8.68381C111.336 8.88123 111.429 9.13696 111.423 9.39996L110.829 23.589C110.806 25.265 108.361 26.213 106.564 26.174C104.767 26.135 104.695 25.246 104.656 23.652C104.615 20.99 104.615 19.989 104.615 20.005C103.857 19.808 103.182 19.3759 102.685 18.7707C102.189 18.1655 101.897 17.4184 101.852 16.637C101.656 14.6721 101.643 12.6932 101.814 10.726C101.928 8.93596 103.114 6.73496 104.901 6.90996L110.485 8.33496Z" fill="#FFAAAA"/>
<path d="M102.983 12.424C102.981 12.5241 103.019 12.6209 103.088 12.6934C103.157 12.766 103.252 12.8086 103.352 12.812C103.401 12.8161 103.45 12.8103 103.496 12.795C103.542 12.7799 103.585 12.7554 103.622 12.723C103.659 12.6907 103.689 12.6512 103.71 12.607C103.732 12.563 103.744 12.515 103.746 12.466C103.747 12.366 103.709 12.2697 103.64 12.1973C103.571 12.1249 103.477 12.0821 103.377 12.078C103.328 12.0741 103.279 12.0801 103.233 12.0956C103.186 12.111 103.144 12.1356 103.107 12.168C103.07 12.2002 103.04 12.2397 103.019 12.284C102.998 12.3281 102.985 12.376 102.983 12.425V12.424Z" fill="#263238"/>
<path d="M102.351 11.995C102.398 12.043 102.691 11.83 103.101 11.83C103.511 11.83 103.816 12.037 103.861 11.986C103.906 11.935 103.836 11.875 103.702 11.779C103.524 11.6555 103.312 11.5899 103.095 11.591C102.881 11.5889 102.672 11.6571 102.5 11.785C102.373 11.881 102.328 11.973 102.351 11.995Z" fill="#263238"/>
<path d="M107.012 12.424C107.011 12.5218 107.047 12.6165 107.113 12.6886C107.179 12.7607 107.27 12.8048 107.368 12.812C107.417 12.8159 107.466 12.8099 107.513 12.7945C107.559 12.779 107.602 12.7544 107.639 12.722C107.675 12.6892 107.705 12.6498 107.727 12.606C107.748 12.5617 107.76 12.5138 107.763 12.465C107.763 12.3651 107.725 12.2689 107.657 12.196C107.588 12.1239 107.494 12.0812 107.394 12.077C107.297 12.0723 107.203 12.1063 107.131 12.1714C107.06 12.2364 107.017 12.3273 107.012 12.424Z" fill="#263238"/>
<path d="M106.414 12.071C106.462 12.119 106.751 11.906 107.162 11.906C107.573 11.906 107.877 12.113 107.922 12.065C107.967 12.017 107.896 11.95 107.763 11.855C107.585 11.731 107.372 11.6654 107.155 11.667C106.939 11.6659 106.729 11.7339 106.555 11.861C106.414 11.952 106.379 12.052 106.414 12.071Z" fill="#263238"/>
<path d="M104.906 15.127C104.689 15.06 104.465 15.0194 104.239 15.006C104.134 15.006 104.032 14.974 104.016 14.906C104.006 14.7953 104.031 14.6843 104.086 14.588C104.186 14.334 104.286 14.067 104.404 13.788C104.692 13.1075 104.926 12.4053 105.104 11.688C104.759 12.3413 104.469 13.0219 104.236 13.723L103.936 14.531C103.87 14.6581 103.851 14.8042 103.882 14.944C103.897 14.9825 103.921 15.0169 103.952 15.044C103.981 15.0696 104.015 15.0887 104.052 15.1C104.11 15.1152 104.171 15.1236 104.231 15.125C104.455 15.1538 104.682 15.1545 104.906 15.127Z" fill="#263238"/>
<path d="M104.624 20.002C106.036 20.0278 107.427 19.6589 108.641 18.937C108.241 19.6028 107.647 20.1299 106.938 20.4471C106.23 20.7644 105.441 20.8565 104.678 20.711L104.624 20.002Z" fill="#EB996E"/>
<path d="M105.082 16.12C105.161 16.0221 105.263 15.9457 105.379 15.8979C105.495 15.8502 105.621 15.8327 105.746 15.847C105.837 15.8547 105.926 15.8809 106.007 15.924C106.088 15.9672 106.16 16.0264 106.217 16.098C106.272 16.1666 106.304 16.2504 106.31 16.338C106.315 16.4255 106.294 16.5126 106.249 16.588C106.183 16.662 106.096 16.7146 105.999 16.739C105.903 16.7634 105.802 16.7585 105.708 16.725C105.512 16.656 105.333 16.5478 105.18 16.407C105.134 16.3742 105.094 16.3332 105.063 16.286C105.048 16.2633 105.04 16.2367 105.04 16.2095C105.04 16.1822 105.048 16.1556 105.063 16.133" fill="#EB996E"/>
<path d="M106.121 15.414C106.055 15.414 106.051 15.856 105.67 16.174C105.41 16.3432 105.116 16.4519 104.808 16.492C104.808 16.543 104.908 16.578 105.126 16.584C105.389 16.5871 105.644 16.4983 105.848 16.333C106.042 16.1737 106.167 15.946 106.198 15.697C106.201 15.522 106.15 15.411 106.121 15.414Z" fill="#263238"/>
<path d="M106.217 11.352C106.258 11.463 106.672 11.409 107.155 11.47C107.638 11.531 108.03 11.658 108.093 11.559C108.122 11.511 108.052 11.406 107.893 11.295C107.682 11.1595 107.442 11.0766 107.193 11.053C106.946 11.022 106.694 11.0515 106.461 11.139C106.29 11.206 106.201 11.295 106.217 11.352Z" fill="#263238"/>
<path d="M102.503 10.8C102.576 10.9 102.859 10.8 103.203 10.8C103.547 10.8 103.839 10.864 103.903 10.765C103.932 10.717 103.903 10.622 103.76 10.536C103.592 10.4258 103.394 10.3712 103.194 10.38C102.993 10.3843 102.799 10.4499 102.637 10.568C102.513 10.66 102.471 10.752 102.503 10.8Z" fill="#263238"/>
<path d="M106.392 5.93096C105.378 5.9825 104.394 6.28859 103.53 6.82096C102.552 7.32773 101.815 8.20216 101.482 9.25196C101.44 9.36027 101.421 9.47594 101.425 9.59196C101.429 9.70775 101.457 9.82145 101.507 9.92596C101.602 10.0458 101.735 10.1288 101.884 10.1608C102.034 10.1927 102.19 10.1716 102.325 10.101C102.594 9.95431 102.824 9.7434 102.992 9.48696C103.059 9.7676 103.219 10.0171 103.447 10.1946C103.674 10.372 103.956 10.4668 104.244 10.4634C104.533 10.4601 104.811 10.3587 105.035 10.176C105.258 9.99329 105.413 9.74009 105.473 9.45796C105.496 9.7445 105.628 10.0113 105.842 10.2026C106.057 10.394 106.337 10.4951 106.624 10.485C106.91 10.46 107.183 10.3521 107.409 10.1745C107.635 9.99688 107.804 9.75726 107.896 9.48496C107.966 10.0018 108.145 10.498 108.42 10.941C108.561 11.1608 108.767 11.3317 109.009 11.4307C109.251 11.5296 109.517 11.5517 109.772 11.494C109.665 11.9337 109.672 12.3934 109.791 12.83C109.95 13.25 110.583 20.43 111.009 20.287C111.435 20.144 111.419 12.814 111.515 12.387C111.726 11.5703 111.833 10.7304 111.833 9.88696C111.861 9.01721 111.579 8.16584 111.037 7.48494C110.495 6.80403 109.729 6.33795 108.875 6.16996C108.023 5.97464 107.148 5.89459 106.275 5.93196" fill="#263238"/>
<path d="M112.377 19.013C112.348 19.03 112.316 19.0437 112.284 19.054C112.195 19.0867 112.102 19.1092 112.008 19.121C111.566 19.1772 111.117 19.1066 110.713 18.9176C110.309 18.7285 109.968 18.4287 109.728 18.053C109.402 17.487 109.265 16.8321 109.336 16.183C109.384 15.499 109.543 14.876 109.616 14.304C109.688 13.7957 109.733 13.284 109.75 12.771V11.731C109.736 11.604 109.736 11.4759 109.75 11.349C109.788 11.4741 109.81 11.6034 109.817 11.734C109.851 12.0816 109.868 12.4307 109.867 12.78C109.866 13.2979 109.833 13.8152 109.767 14.329C109.697 14.914 109.548 15.541 109.5 16.199C109.432 16.8152 109.556 17.4373 109.856 17.98C110.117 18.412 110.519 18.7411 110.994 18.912C111.313 19.0334 111.654 19.0856 111.994 19.065C112.242 19.052 112.373 18.998 112.377 19.013Z" fill="#263238"/>
<path d="M105.342 5.54596C105.457 5.76378 105.511 6.00892 105.497 6.25496C105.509 6.85746 105.281 7.43998 104.864 7.87499C104.447 8.31 103.874 8.56205 103.272 8.57596C103.027 8.59951 102.781 8.55559 102.559 8.44896C102.794 8.46106 103.03 8.46106 103.265 8.44896C103.83 8.41054 104.361 8.16341 104.754 7.75555C105.148 7.3477 105.375 6.80824 105.393 6.24196C105.399 5.81896 105.31 5.55196 105.342 5.54596Z" fill="#455A64"/>
<path d="M105.778 9.06296C105.794 9.06296 105.756 9.26296 105.527 9.48896C105.375 9.62567 105.197 9.73024 105.003 9.79639C104.81 9.86255 104.605 9.88893 104.401 9.87396C104.001 9.8382 103.616 9.7061 103.278 9.48896C103.021 9.32696 102.878 9.20296 102.894 9.17096C103.048 9.21942 103.195 9.28659 103.333 9.37096C103.668 9.54541 104.035 9.65339 104.411 9.68896C104.784 9.7109 105.153 9.59804 105.45 9.37096C105.572 9.28261 105.682 9.17911 105.778 9.06296Z" fill="#455A64"/>
<path d="M112.981 8.15196C113.002 8.42562 112.983 8.7009 112.924 8.96896C112.834 9.63324 112.583 10.2654 112.192 10.81C111.988 11.0802 111.731 11.3058 111.437 11.4732C111.143 11.6405 110.817 11.7459 110.481 11.783C110.277 11.8015 110.071 11.7811 109.874 11.723C109.737 11.682 109.674 11.64 109.674 11.631C109.936 11.6779 110.204 11.6897 110.469 11.666C111.101 11.563 111.67 11.2216 112.059 10.712C112.431 10.1848 112.686 9.58398 112.806 8.94996C112.848 8.67993 112.906 8.41275 112.981 8.14996V8.15196Z" fill="#455A64"/>
<path d="M113.528 9.59796C113.557 9.67968 113.573 9.76534 113.576 9.85196C113.597 10.0847 113.602 10.3186 113.591 10.552C113.575 11.3345 113.295 12.0887 112.796 12.692C112.515 13.0238 112.149 13.2733 111.738 13.414C111.4 13.5245 111.04 13.5465 110.691 13.478C110.457 13.4331 110.235 13.3397 110.039 13.204C109.906 13.104 109.849 13.032 109.855 13.026C110.116 13.1919 110.406 13.3063 110.71 13.363C111.038 13.4102 111.373 13.3786 111.687 13.271C112.069 13.1301 112.408 12.8935 112.672 12.584C113.145 12.0028 113.426 11.2895 113.477 10.542C113.528 9.96296 113.499 9.60096 113.528 9.59796Z" fill="#455A64"/>
<path d="M71.613 48.034L65.842 61.234H73.789L79.449 47.934L71.613 48.034Z" fill="#455A64"/>
<path d="M67.415 33.994L73.924 46.794H94.454L93.624 45.121L87.677 44.943L82.828 34.152C82.6804 33.8245 82.4416 33.5466 82.1401 33.3515C81.8385 33.1564 81.4871 33.0524 81.128 33.052H67.994C67.8814 33.0479 67.7698 33.0739 67.6705 33.1271C67.5713 33.1804 67.4879 33.259 67.4291 33.355C67.3702 33.451 67.3378 33.561 67.3354 33.6736C67.3329 33.7862 67.3604 33.8974 67.415 33.996V33.994Z" fill="#E0E0E0"/>
<path d="M77.696 39.734C77.6969 39.9167 77.6344 40.094 77.5191 40.2357C77.4037 40.3775 77.2428 40.4748 77.0637 40.5111C76.8847 40.5474 76.6986 40.5204 76.5372 40.4347C76.3758 40.3491 76.2491 40.2101 76.1788 40.0414C76.1085 39.8728 76.0989 39.685 76.1516 39.5101C76.2044 39.3351 76.3162 39.1839 76.468 39.0822C76.6198 38.9806 76.8022 38.9347 76.984 38.9526C77.1658 38.9704 77.3359 39.0508 77.465 39.18C77.6124 39.3267 77.6955 39.526 77.696 39.734Z" fill="#263238"/>
<path d="M96.642 46.822H71.542V48.046H96.642V46.822Z" fill="#455A64"/>
<path d="M88.912 47.436L96.547 61.246H100.198L100.993 59.666L101.724 58.003L96.642 48.046L88.912 47.436Z" fill="#455A64"/>
<path d="M102.179 23.758C100.812 24.3153 99.6045 25.2027 98.6645 26.3408C97.7244 27.479 97.0811 28.8324 96.792 30.28L101.473 32.614L102.179 23.758Z" fill="#0097C2"/>
<path d="M102.179 23.758C102.179 23.758 99.079 30.709 99.196 34.506C99.3924 36.1142 99.695 37.7077 100.102 39.276L101.714 47.817C101.714 47.817 114.056 46.147 114.329 46.147C114.602 46.147 113.916 39.135 113.916 39.135L115.929 25.662C115.929 25.662 115.007 23.827 110.841 23.191C108.342 22.801 102.179 23.758 102.179 23.758Z" fill="#0097C2"/>
<path d="M101.008 27.793C101.037 27.809 100.713 28.327 100.322 29.224C100.095 29.7489 99.9037 30.2885 99.749 30.839C99.5644 31.5137 99.4307 32.2013 99.349 32.896C99.2758 33.5934 99.2537 34.2953 99.283 34.996C99.3111 35.5665 99.3779 36.1345 99.483 36.696C99.661 37.65 99.864 38.235 99.833 38.245C99.766 38.1176 99.7127 37.9835 99.674 37.845C99.6173 37.6876 99.5683 37.5276 99.527 37.365C99.476 37.174 99.41 36.965 99.365 36.729C99.2458 36.163 99.1673 35.5892 99.13 35.012C99.0919 34.3037 99.11 33.5934 99.184 32.888C99.2688 32.1834 99.4102 31.4868 99.607 30.805C99.7699 30.2504 99.9752 29.7091 100.221 29.186C100.31 28.9825 100.411 28.7839 100.521 28.591C100.597 28.4412 100.68 28.2956 100.772 28.155C100.838 28.0268 100.917 27.9055 101.008 27.793Z" fill="#263238"/>
<path d="M103.679 23.694L103.857 21.786C103.877 21.5869 103.969 21.4022 104.117 21.2672C104.265 21.1323 104.457 21.0567 104.657 21.055L110.747 20.963C110.932 20.9609 111.11 21.029 111.247 21.1535C111.383 21.2781 111.467 21.4498 111.482 21.634L111.637 23.691C111.127 24.7714 110.265 25.6461 109.192 26.171C107.734 26.7437 106.185 27.0486 104.619 27.071L103.679 23.694Z" fill="#0097C2"/>
<path d="M105.273 21.071C105.292 21.071 105.203 21.195 105.165 21.389C105.13 21.6699 105.13 21.954 105.165 22.235C105.218 22.6446 105.218 23.0593 105.165 23.469C105.055 23.0703 104.999 22.6586 104.999 22.245C104.957 21.9505 104.97 21.6508 105.037 21.361C105.142 21.141 105.263 21.052 105.273 21.071Z" fill="#263238"/>
<path d="M106.732 23.43C106.625 23.0391 106.573 22.6352 106.579 22.23C106.555 21.9441 106.555 21.6568 106.579 21.371C106.611 21.142 106.703 21.024 106.722 21.053C106.741 21.082 106.694 21.187 106.697 21.396C106.7 21.605 106.732 21.905 106.732 22.223C106.785 22.6212 106.785 23.0247 106.732 23.423V23.43Z" fill="#263238"/>
<path d="M108.561 23.379C108.43 23.008 108.349 22.6207 108.323 22.228C108.244 21.8389 108.219 21.4408 108.25 21.045C108.383 21.4191 108.463 21.8098 108.488 22.206C108.565 22.5919 108.59 22.9865 108.561 23.379Z" fill="#263238"/>
<path d="M110.137 23.5C109.992 23.0912 109.915 22.6616 109.908 22.228C109.847 21.7958 109.858 21.3566 109.94 20.928C110.024 21.347 110.068 21.7728 110.074 22.2C110.136 22.6303 110.157 23.0656 110.137 23.5Z" fill="#263238"/>
<g opacity="0.3">
<path opacity="0.3" d="M111.342 30.786C111.063 33.4211 111.292 36.0852 112.017 38.634L115.572 32.761L111.342 30.786Z" fill="black"/>
</g>
<path d="M115.598 25.221L115.618 25.24C116.626 26.2983 117.363 27.5844 117.767 28.989L118.422 31.975L111.422 33.056C111.037 31.7895 110.946 30.452 111.155 29.145C111.503 26.893 115.598 25.221 115.598 25.221Z" fill="#0097C2"/>
<path d="M118.422 31.975C118.376 31.9909 118.33 32.0026 118.282 32.01L117.882 32.083L116.382 32.328L111.313 33.098H111.224V33.006C111.208 32.583 111.196 32.144 111.186 31.693C111.17 30.52 111.186 29.393 111.256 28.376C111.305 27.4613 111.585 26.574 112.07 25.797C112.395 25.275 112.841 24.8387 113.37 24.525C113.513 24.44 113.664 24.3696 113.821 24.315C113.874 24.2909 113.93 24.2747 113.987 24.267C113.783 24.355 113.587 24.4614 113.402 24.585C112.897 24.9081 112.474 25.3434 112.165 25.857C111.704 26.6288 111.442 27.5029 111.402 28.401C111.328 29.412 111.332 30.532 111.351 31.701C111.351 32.146 111.373 32.588 111.382 33.008L111.29 32.929L116.378 32.214L117.878 32.02L118.285 31.972C118.327 31.9665 118.37 31.9665 118.413 31.972L118.422 31.975Z" fill="#263238"/>
<path d="M103.642 27.589C103.286 27.3814 102.959 27.1279 102.669 26.835C102.342 26.5829 102.051 26.2876 101.804 25.957C102.487 26.4161 103.105 26.9646 103.642 27.588V27.589Z" fill="#FAFAFA"/>
<path d="M102.7 31.269C102.451 31.5252 102.162 31.7399 101.845 31.905C101.554 32.1161 101.232 32.2813 100.891 32.395C101.43 31.9314 102.037 31.5539 102.691 31.276L102.7 31.269Z" fill="#FAFAFA"/>
<path d="M106.602 32.175C106.545 31.7231 106.545 31.2658 106.602 30.814C106.604 30.3597 106.66 29.9073 106.767 29.466C106.823 29.9169 106.823 30.373 106.767 30.824C106.766 31.2792 106.71 31.7327 106.602 32.175Z" fill="#FAFAFA"/>
<path d="M110.396 35.852C110.079 35.5551 109.784 35.2363 109.512 34.898C109.199 34.6001 108.907 34.2813 108.637 33.944C109.02 34.1646 109.359 34.4546 109.637 34.799C109.95 35.1026 110.207 35.459 110.396 35.852Z" fill="#FAFAFA"/>
<path d="M110.93 28.162C110.657 28.4459 110.345 28.6899 110.004 28.887C109.692 29.1273 109.349 29.3241 108.984 29.472C109.258 29.1893 109.57 28.9468 109.912 28.752C110.224 28.5128 110.566 28.3161 110.93 28.167V28.162Z" fill="#FAFAFA"/>
<path d="M107.501 25.379C107.199 25.6726 106.859 25.9239 106.49 26.126C106.152 26.3769 105.782 26.5823 105.39 26.737C105.692 26.443 106.032 26.1908 106.401 25.987C106.741 25.7397 107.111 25.5358 107.501 25.38V25.379Z" fill="#FAFAFA"/>
<path d="M110.592 26.486C110.384 26.1776 110.221 25.8408 110.109 25.486C109.953 25.1489 109.846 24.7913 109.791 24.424C110.002 24.7308 110.165 25.068 110.274 25.424C110.433 25.7589 110.54 26.1159 110.592 26.483V26.486Z" fill="#FAFAFA"/>
<path d="M114.842 27.882C114.335 27.5293 113.895 27.0891 113.542 26.582C113.811 26.7362 114.051 26.9366 114.251 27.174C114.49 27.3723 114.692 27.6126 114.845 27.883L114.842 27.882Z" fill="#FAFAFA"/>
<path d="M113.092 30.983C112.991 30.6688 112.945 30.3397 112.955 30.01C112.908 29.6844 112.918 29.3532 112.984 29.031C113.13 29.6712 113.167 30.3315 113.092 30.984V30.983Z" fill="#FAFAFA"/>
<path d="M116.625 30.34C116.255 30.399 115.877 30.3861 115.512 30.302C115.139 30.2703 114.775 30.1685 114.44 30.002C114.81 30.0058 115.179 30.0508 115.54 30.136C115.908 30.1653 116.272 30.2337 116.625 30.34Z" fill="#FAFAFA"/>
<path d="M102.379 36.752C102.12 36.3928 101.906 36.0028 101.743 35.591C101.53 35.2023 101.365 34.7888 101.253 34.36C101.513 34.7189 101.726 35.1089 101.889 35.521C102.103 35.9094 102.267 36.3229 102.379 36.752Z" fill="#FAFAFA"/>
<path d="M107.05 41.766C106.751 41.4945 106.491 41.1833 106.277 40.841C106.022 40.5284 105.808 40.1842 105.641 39.817C106.202 40.3954 106.677 41.0518 107.05 41.766Z" fill="#FAFAFA"/>
<path d="M110.91 39.661C110.583 39.8757 110.228 40.044 109.855 40.161C109.501 40.3277 109.125 40.4422 108.739 40.501C109.419 40.1198 110.15 39.8382 110.91 39.665V39.661Z" fill="#FAFAFA"/>
<path d="M101.399 43.725C101.552 43.125 101.809 42.5567 102.159 42.046C102.106 42.3542 101.998 42.6505 101.841 42.921C101.742 43.213 101.593 43.4853 101.399 43.725Z" fill="#FAFAFA"/>
<path d="M98.406 29.352C98.2221 29.119 98.1114 28.8368 98.088 28.541C98.0131 28.2544 98.0263 27.9519 98.126 27.673C98.1914 27.949 98.2339 28.2299 98.253 28.513C98.3266 28.7884 98.3778 29.0693 98.406 29.353V29.352Z" fill="#FAFAFA"/>
<path d="M103.721 40.507C103.381 40.4177 103.059 40.2728 102.767 40.078C102.45 39.9344 102.158 39.7413 101.902 39.506C102.241 39.5968 102.563 39.7417 102.856 39.935C103.171 40.0812 103.463 40.274 103.721 40.507Z" fill="#FAFAFA"/>
<path d="M106.789 35.209C106.267 35.8334 105.662 36.3823 104.989 36.84C105.23 36.5106 105.514 36.2153 105.834 35.962C106.117 35.6687 106.437 35.4151 106.788 35.208L106.789 35.209Z" fill="#FAFAFA"/>
<g opacity="0.3">
<path opacity="0.3" d="M104.909 35.11C105.064 36.2184 105.558 37.2515 106.325 38.067C106.713 38.4673 107.205 38.7511 107.745 38.8859C108.286 39.0208 108.854 39.0014 109.384 38.83C109.497 38.7986 109.6 38.7407 109.686 38.661C109.772 38.5813 109.837 38.4822 109.877 38.372C109.894 38.236 109.864 38.0982 109.791 37.9822C109.718 37.8662 109.607 37.7791 109.477 37.736C109.219 37.653 108.948 37.6145 108.677 37.622C107.906 37.5713 107.16 37.3242 106.511 36.9041C105.862 36.4841 105.331 35.905 104.969 35.222" fill="black"/>
</g>
<path d="M109.042 37.673C108.973 37.6934 108.901 37.7062 108.829 37.711C108.632 37.7308 108.434 37.7308 108.237 37.711C107.945 37.6778 107.658 37.6107 107.382 37.511C106.7 37.2657 106.095 36.8457 105.626 36.293C105.436 36.0691 105.273 35.8237 105.14 35.562C105.046 35.3876 104.973 35.203 104.921 35.012C104.895 34.9438 104.881 34.8718 104.879 34.799C104.911 34.799 104.997 35.085 105.242 35.505C105.385 35.7501 105.553 35.9802 105.742 36.192C105.976 36.4496 106.237 36.681 106.521 36.882C106.808 37.0766 107.115 37.2399 107.437 37.369C107.701 37.4727 107.975 37.5495 108.254 37.598C108.735 37.664 109.042 37.641 109.042 37.673Z" fill="#263238"/>
<path d="M91.542 42.799L96.142 42.262L99.388 44.389L111.788 41.413L112.081 32.913L117.592 32.188V42.478C117.561 43.7265 117.036 44.9118 116.132 45.774C115.228 46.6362 114.02 47.1051 112.771 47.078L94.594 46.572L93.821 45.027L89.921 44.909L91.542 42.799Z" fill="#FFAAAA"/>
<path d="M111.642 41.397C111.566 41.4274 111.487 41.4518 111.407 41.47L110.733 41.645L108.242 42.262L100.012 44.256L99.246 44.44H99.189L95.945 42.306H95.99L91.382 42.84L91.414 42.821L90.193 44.37L89.875 44.777C89.8397 44.8259 89.7991 44.8708 89.754 44.911C89.784 44.8588 89.8174 44.8087 89.854 44.761L90.172 44.341L91.355 42.77H91.374L95.974 42.194H96.018L99.268 44.318H99.211L99.977 44.134L108.216 42.182L110.716 41.606L111.397 41.456C111.477 41.4297 111.559 41.41 111.642 41.397Z" fill="#EB996E"/>
<path d="M94.054 44.119C93.46 44.1885 92.8616 44.2119 92.264 44.189H91.942L91.987 44.173C91.6272 44.5035 91.2386 44.8013 90.826 45.063C91.1537 44.7006 91.5109 44.3661 91.894 44.063L91.913 44.044H92.266C92.863 44.0198 93.4611 44.0449 94.054 44.119Z" fill="#EB996E"/>
<path d="M113.932 42.787C113.695 42.413 113.387 42.0889 113.026 41.833C112.642 41.6163 112.22 41.4779 111.782 41.426C111.91 41.3815 112.048 41.3705 112.182 41.394C112.507 41.4282 112.819 41.537 113.095 41.7119C113.371 41.8867 113.602 42.1229 113.772 42.402C113.858 42.514 113.913 42.6468 113.931 42.787H113.932Z" fill="#EB996E"/>
<path d="M34.404 110.717H13.642V113.569H34.404V110.717Z" fill="#263238"/>
<path d="M34.442 113.607H13.603V110.682H34.442V113.607ZM13.677 113.534H34.377V110.752H13.677V113.534Z" fill="#263238"/>
<path d="M15.565 112.622L18.551 127.367H29.611L32.502 113.567L15.565 112.622Z" fill="#263238"/>
<path d="M15.565 125.971L17.158 128.165H30.6L32.5 125.971H15.565Z" fill="#455A64"/>
<path d="M23.242 113.052C23.201 113.052 23.15 106.222 23.124 97.788C23.098 89.354 23.124 82.524 23.156 82.524C23.188 82.524 23.248 89.354 23.274 97.788C23.3 106.222 23.283 113.052 23.242 113.052Z" fill="#263238"/>
<path d="M27.869 95.952C27.8553 96.0067 27.8362 96.06 27.812 96.111C27.764 96.229 27.701 96.375 27.628 96.553C27.587 96.653 27.542 96.753 27.491 96.871C27.44 96.989 27.402 97.122 27.354 97.259L27.192 97.704C27.138 97.863 27.092 98.022 27.039 98.213C26.7922 99.048 26.5978 99.8977 26.457 100.757C26.2974 101.811 26.1913 102.872 26.139 103.936C26.0637 105.876 26.1192 107.819 26.305 109.752C26.372 110.496 26.439 111.094 26.489 111.507C26.508 111.701 26.527 111.86 26.54 111.984C26.5443 112.04 26.5443 112.097 26.54 112.153C26.5201 112.1 26.5073 112.044 26.502 111.988C26.48 111.864 26.454 111.708 26.422 111.517C26.355 111.104 26.269 110.506 26.19 109.765C25.9736 107.831 25.9044 105.883 25.983 103.939C26.03 102.867 26.1362 101.799 26.301 100.739C26.4481 99.8778 26.6543 99.0278 26.918 98.195C26.975 98.017 27.018 97.846 27.08 97.69L27.252 97.245L27.405 96.86C27.456 96.742 27.505 96.641 27.551 96.542L27.764 96.11C27.7891 96.0541 27.8229 96.0024 27.864 95.957L27.869 95.952Z" fill="#263238"/>
<path d="M27.342 90.4319C27.3243 90.5086 27.3019 90.5841 27.275 90.6579C27.221 90.8139 27.148 91.0269 27.059 91.2939L26.896 91.7519C26.845 91.9239 26.788 92.1079 26.727 92.3049C26.606 92.6989 26.466 93.1479 26.342 93.6529L26.132 94.4449C26.068 94.7219 26.005 95.0109 25.938 95.3069C25.792 95.9019 25.687 96.5469 25.553 97.2149C25.324 98.5689 25.124 100.076 24.984 101.652C24.844 103.228 24.796 104.752 24.777 106.126C24.758 107.5 24.777 108.743 24.847 109.783C24.863 110.304 24.898 110.772 24.923 111.183C24.948 111.594 24.974 111.953 24.999 112.242C25.024 112.531 25.037 112.742 25.05 112.913C25.0542 112.99 25.0542 113.068 25.05 113.145C25.0296 113.07 25.0169 112.993 25.012 112.916C24.993 112.748 24.968 112.528 24.933 112.248C24.898 111.968 24.863 111.612 24.833 111.189C24.803 110.766 24.76 110.309 24.733 109.789C24.663 108.746 24.633 107.506 24.633 106.126C24.633 104.746 24.697 103.226 24.833 101.642C24.969 100.058 25.18 98.5509 25.415 97.1899C25.552 96.5129 25.663 95.8669 25.815 95.2819C25.885 94.9819 25.955 94.6939 26.015 94.4169L26.234 93.6279C26.364 93.1219 26.514 92.6739 26.644 92.2799C26.708 92.0799 26.768 91.9019 26.822 91.7299C26.876 91.5579 26.94 91.4119 26.994 91.2749L27.236 90.6389C27.2615 90.5664 27.295 90.497 27.336 90.4319H27.342Z" fill="#263238"/>
<path d="M21.929 114.259C21.9256 114.233 21.9256 114.206 21.929 114.18C21.9308 114.101 21.9244 114.022 21.91 113.945C21.894 113.728 21.875 113.426 21.85 113.045C21.799 112.245 21.729 111.115 21.64 109.716C21.462 106.908 21.201 103.038 20.727 98.761C20.485 96.624 20.206 94.599 19.913 92.761C19.76 91.845 19.62 90.9739 19.458 90.1609C19.296 89.3479 19.14 88.593 19.013 87.903C18.886 87.213 18.724 86.596 18.6 86.052C18.476 85.508 18.365 85.038 18.282 84.652C18.199 84.266 18.12 83.984 18.066 83.771C18.047 83.679 18.028 83.603 18.015 83.542C18.0101 83.5158 18.0101 83.4891 18.015 83.463C18.0282 83.4868 18.038 83.5124 18.044 83.539L18.108 83.765C18.168 83.975 18.248 84.265 18.353 84.64C18.458 85.015 18.582 85.483 18.712 86.03C18.842 86.577 19.001 87.191 19.145 87.881C19.289 88.571 19.463 89.322 19.609 90.136C19.755 90.95 19.927 91.821 20.08 92.736C20.38 94.574 20.662 96.603 20.904 98.736C21.378 103.01 21.623 106.893 21.775 109.704C21.851 111.112 21.905 112.248 21.937 113.036C21.937 113.421 21.962 113.723 21.969 113.943V114.178C21.9604 114.206 21.9476 114.233 21.931 114.257L21.929 114.259Z" fill="#263238"/>
<path d="M23.073 85.827C22.9875 85.3477 22.736 84.9139 22.3626 84.6016C21.9892 84.2893 21.5178 84.1184 21.031 84.119C20.5443 84.1404 20.0688 84.2724 19.6407 84.5049C19.2125 84.7374 18.843 85.0644 18.56 85.461C18 86.2593 17.5953 87.1559 17.367 88.104C16.6594 90.3759 16.4109 92.766 16.636 95.135C16.8696 97.5169 17.9006 99.7502 19.562 101.473C19.6801 101.626 19.8336 101.747 20.0092 101.828C20.1847 101.908 20.3772 101.945 20.57 101.934C20.7713 101.875 20.9542 101.766 21.101 101.616C22.7568 100.1 24.0691 98.2471 24.95 96.182C25.8308 94.117 26.2597 91.8874 26.208 89.643C26.2378 88.743 26.0177 87.8524 25.572 87.07C25.079 86.326 23.918 85.531 23.072 85.83" fill="#0097C2"/>
<path d="M15.814 78.0679L14.442 80.5519C14.41 80.6089 14.369 80.6759 14.302 80.6789C14.235 80.6819 14.175 80.6189 14.137 80.5579L10.518 75.0179L11.351 74.5439L15.814 78.0679Z" fill="#0097C2"/>
<g opacity="0.2">
<path opacity="0.2" d="M15.814 78.0679L14.442 80.5519C14.41 80.6089 14.369 80.6759 14.302 80.6789C14.235 80.6819 14.175 80.6189 14.137 80.5579L10.518 75.0179L11.351 74.5439L15.814 78.0679Z" fill="black"/>
</g>
<path d="M23.156 82.5359L10.812 75.252C10.6705 75.198 10.5561 75.0901 10.494 74.9519C10.446 74.7709 10.583 74.5929 10.713 74.4519C11.5626 73.5714 12.5918 72.8842 13.7306 72.4369C14.8695 71.9897 16.0913 71.7929 17.313 71.86C18.534 71.9478 19.7152 72.3315 20.7547 72.9781C21.7941 73.6246 22.6605 74.5146 23.279 75.571C23.8862 76.6362 24.194 77.8459 24.1699 79.0718C24.1457 80.2978 23.7906 81.4944 23.142 82.5349" fill="#0097C2"/>
<path d="M12.604 72.926C12.6567 72.9114 12.7113 72.905 12.766 72.907C12.866 72.907 13.03 72.882 13.233 72.885C13.8062 72.8774 14.3789 72.9222 14.944 73.019C15.7857 73.1633 16.6061 73.4122 17.386 73.76C18.7322 74.3657 19.9278 75.2617 20.8872 76.3837C21.8465 77.5057 22.5458 78.826 22.935 80.25C23.0943 80.8026 23.2008 81.3692 23.253 81.942C23.278 82.142 23.272 82.301 23.278 82.409C23.2835 82.4628 23.2835 82.5171 23.278 82.571C23.278 82.571 23.249 82.348 23.198 81.935C23.1275 81.3699 23.0115 80.8114 22.851 80.265C22.3333 78.4523 21.3178 76.821 19.9198 75.5563C18.5218 74.2916 16.7973 73.4441 14.942 73.11C14.3828 73.0038 13.816 72.9433 13.247 72.929C13.0328 72.94 12.8181 72.939 12.604 72.926Z" fill="#263238"/>
<path d="M21.484 77.508C21.285 77.6292 21.0713 77.7243 20.848 77.791C20.454 77.947 19.894 78.144 19.29 78.341C18.686 78.538 18.113 78.691 17.7 78.793C17.4807 78.8599 17.2546 78.9025 17.026 78.92C17.2294 78.8216 17.4426 78.7448 17.662 78.691L19.233 78.198L20.801 77.692C21.0223 77.6078 21.2514 77.5458 21.485 77.507L21.484 77.508Z" fill="#263238"/>
<path d="M19.542 72.287C19.6525 72.7373 19.7016 73.2005 19.688 73.664C19.7245 74.1263 19.6989 74.5914 19.612 75.047C19.5524 74.5895 19.529 74.1281 19.542 73.667C19.5056 73.2077 19.5056 72.7462 19.542 72.287Z" fill="#263238"/>
<path d="M10.697 75.114C10.9869 74.9813 11.2881 74.8748 11.597 74.796C12.157 74.621 12.939 74.402 13.823 74.196C14.707 73.99 15.489 73.827 16.049 73.725C16.3627 73.655 16.6819 73.6125 17.003 73.598C16.7012 73.6949 16.3932 73.7715 16.081 73.827C15.509 73.954 14.72 74.145 13.855 74.342C12.99 74.539 12.205 74.752 11.629 74.899C11.3235 74.9912 11.0121 75.0631 10.697 75.114Z" fill="#263238"/>
<path d="M17.464 83.531C16.4424 82.8076 15.1915 82.4829 13.947 82.618C12.6143 82.7029 11.3092 83.0363 10.099 83.601C7.97374 84.4468 6.13909 85.8903 4.81701 87.757C4.16849 88.6949 3.76107 89.7782 3.63078 90.911C3.50049 92.0438 3.65135 93.1913 4.07001 94.252C4.14335 94.4688 4.29392 94.651 4.49301 94.764C4.72539 94.8293 4.97339 94.8101 5.19301 94.71C7.58533 94.0128 9.90555 93.0886 12.122 91.95C14.3467 90.7989 16.1934 89.0324 17.442 86.861C17.7408 86.3483 17.9333 85.7806 18.008 85.192C18.0398 84.8941 18.0078 84.5928 17.914 84.3083C17.8202 84.0238 17.6668 83.7625 17.464 83.542" fill="#0097C2"/>
<path d="M17.483 83.283C17.4302 83.3132 17.3737 83.3367 17.315 83.353L16.815 83.525L16.456 83.643C16.326 83.691 16.186 83.743 16.036 83.808C15.736 83.929 15.4 84.05 15.022 84.228L14.443 84.492C14.243 84.584 14.043 84.699 13.826 84.81C13.397 85.02 12.964 85.29 12.5 85.564C10.5183 86.7933 8.7549 88.3438 7.28203 90.152C6.96403 90.575 6.63003 90.972 6.36603 91.373C6.22903 91.573 6.09303 91.755 5.97203 91.942L5.65403 92.483C5.43103 92.823 5.26603 93.154 5.10703 93.437C5.03103 93.577 4.95403 93.707 4.89103 93.831C4.82803 93.955 4.77703 94.066 4.72903 94.171L4.49403 94.642C4.47184 94.6988 4.44189 94.7523 4.40503 94.801C4.42063 94.7417 4.44207 94.684 4.46903 94.629L4.67603 94.146C4.72403 94.046 4.77603 93.927 4.82903 93.799C4.88203 93.671 4.96303 93.541 5.03603 93.399C5.18903 93.11 5.35403 92.763 5.56403 92.429C5.67203 92.254 5.78003 92.07 5.88203 91.879C5.98403 91.688 6.13603 91.504 6.27003 91.303C6.53103 90.896 6.85203 90.495 7.17903 90.066C7.92033 89.1549 8.73289 88.3042 9.60903 87.522C10.4947 86.7525 11.4411 86.0559 12.439 85.439C12.906 85.166 13.345 84.898 13.778 84.692C13.994 84.584 14.198 84.473 14.414 84.374L15.002 84.12C15.374 83.945 15.724 83.831 16.029 83.72C16.182 83.666 16.322 83.612 16.455 83.567L16.818 83.459L17.324 83.316C17.3772 83.3023 17.4314 83.2926 17.486 83.287L17.483 83.283Z" fill="#263238"/>
<path d="M9.19002 87.7729C8.34461 88.095 7.48274 88.3721 6.60802 88.6029C5.74629 88.8831 4.86918 89.1135 3.98102 89.2929C4.82642 88.9709 5.6883 88.6938 6.56302 88.4629C7.42527 88.1846 8.30228 87.9543 9.19002 87.7729Z" fill="#263238"/>
<path d="M9.08198 93.459C9.03895 93.1946 9.01988 92.9268 9.02498 92.659V90.712C9.02498 89.955 9.08898 89.265 9.12498 88.769C9.13097 88.4996 9.16447 88.2315 9.22498 87.969C9.24639 88.2379 9.24639 88.5081 9.22498 88.777C9.20598 89.321 9.18698 89.982 9.16498 90.717C9.14298 91.452 9.12998 92.117 9.11398 92.657C9.12566 92.9242 9.11294 93.192 9.07598 93.457L9.08198 93.459Z" fill="#263238"/>
<path d="M13.966 90.985C13.925 90.985 13.794 89.585 13.677 87.862C13.56 86.139 13.493 84.733 13.534 84.733C13.575 84.733 13.703 86.126 13.823 87.853C13.943 89.58 14.007 90.982 13.966 90.985Z" fill="#263238"/>
<path d="M7.888 84.596C8.16225 84.5615 8.43916 84.5531 8.715 84.571C9.224 84.571 9.93 84.59 10.709 84.616C11.488 84.642 12.191 84.673 12.7 84.702C12.9764 84.7054 13.252 84.7318 13.524 84.781C13.2497 84.8155 12.9728 84.8239 12.697 84.806C12.188 84.806 11.482 84.79 10.703 84.761C9.924 84.732 9.221 84.704 8.709 84.675C8.43389 84.6716 8.15957 84.6448 7.889 84.595L7.888 84.596Z" fill="#263238"/>
<path d="M20.094 102.134C20.0799 102.078 20.0735 102.02 20.075 101.962C20.0772 101.801 20.0699 101.639 20.053 101.479C20.034 101.056 20.031 100.449 20.053 99.6919C20.075 98.9349 20.117 98.0409 20.206 97.0489C20.295 96.0569 20.441 94.9659 20.642 93.8309C20.843 92.6959 21.09 91.6309 21.342 90.6509C21.594 89.6709 21.867 88.8289 22.115 88.1069C22.363 87.3849 22.573 86.8349 22.751 86.4339C22.827 86.2489 22.888 86.1159 22.939 85.9859C22.9584 85.9327 22.9829 85.8815 23.012 85.8329C23.0049 85.8892 22.9887 85.9439 22.964 85.9949L22.783 86.4619C22.637 86.8559 22.436 87.4159 22.204 88.1469C21.972 88.8779 21.718 89.7369 21.466 90.6909C21.214 91.6449 20.979 92.7199 20.776 93.8519C20.573 94.9839 20.436 96.0779 20.334 97.0519C20.232 98.0259 20.175 98.9339 20.15 99.6849C20.125 100.436 20.109 101.046 20.109 101.469V101.952C20.1089 102.012 20.1045 102.071 20.096 102.13L20.094 102.134Z" fill="#263238"/>
<path d="M20.742 93.711C20.5977 93.9086 20.4324 94.0899 20.249 94.252C19.931 94.57 19.476 94.996 18.961 95.452C18.446 95.908 17.961 96.298 17.6 96.575C17.4155 96.7348 17.2144 96.8742 17 96.991C17.1617 96.8077 17.3405 96.6403 17.534 96.491L18.86 95.34L20.176 94.176C20.3485 94.0038 20.537 93.8484 20.739 93.712L20.742 93.711Z" fill="#263238"/>
<path d="M24.651 96.8519C24.4575 96.6242 24.282 96.3818 24.126 96.1269L22.908 94.3519L21.661 92.5899C21.4759 92.3549 21.3087 92.1062 21.161 91.8459C21.3763 92.0539 21.5711 92.2819 21.743 92.5269C22.086 92.9629 22.543 93.5729 23.015 94.2699C23.487 94.9669 23.915 95.6059 24.201 96.0759C24.3744 96.322 24.5244 96.5839 24.649 96.8579L24.651 96.8519Z" fill="#263238"/>
<path d="M22.603 86.952C22.625 86.987 21.331 87.862 19.703 88.904C18.075 89.946 16.746 90.767 16.723 90.732C16.7 90.697 17.995 89.822 19.623 88.78C21.251 87.738 22.584 86.924 22.603 86.952Z" fill="#263238"/>
<path d="M26.278 90.915C25.5927 90.3443 24.9378 89.7382 24.316 89.099C23.6613 88.4977 23.0404 87.8608 22.456 87.191C23.1437 87.76 23.7997 88.3662 24.421 89.007C25.0762 89.6067 25.6962 90.2438 26.278 90.915Z" fill="#263238"/>
<path d="M27.185 90.829L28.298 90.737C29.0893 90.6721 29.8573 90.4367 30.549 90.047C30.8875 89.8496 31.2378 89.6732 31.598 89.519C33.026 89.1041 34.5123 88.9257 35.998 88.991C38.4273 88.8692 40.8076 88.2616 42.998 87.204C43.1295 87.1459 43.2404 87.0493 43.316 86.927C43.545 86.51 43.116 86.138 42.753 85.913C40.9294 84.6678 38.9364 83.6911 36.835 83.013C35.7811 82.6804 34.6683 82.5774 33.5713 82.7107C32.4743 82.844 31.4185 83.2107 30.475 83.786C28.344 85.255 27.565 88.27 27.206 90.833" fill="#0097C2"/>
<path d="M43.32 86.781C43.2558 86.7547 43.193 86.725 43.132 86.692L42.604 86.415C42.146 86.173 41.488 85.815 40.651 85.415C39.6826 84.9368 38.6728 84.5476 37.634 84.252C36.3635 83.8867 35.0328 83.7786 33.72 83.934C32.4051 84.0802 31.1632 84.6137 30.152 85.467C29.3622 86.2007 28.7303 87.0878 28.295 88.074C27.991 88.737 27.7213 89.4152 27.487 90.106L27.287 90.669C27.2674 90.7357 27.242 90.8006 27.211 90.863C27.2205 90.7949 27.2366 90.7279 27.259 90.663C27.304 90.52 27.359 90.329 27.431 90.094C27.6432 89.3994 27.896 88.7179 28.188 88.053C28.6164 87.0436 29.2509 86.1348 30.051 85.385C31.0765 84.5017 32.3442 83.9476 33.689 83.795C35.0199 83.6341 36.3696 83.7422 37.658 84.113C38.703 84.4191 39.7176 84.8207 40.689 85.313C41.519 85.726 42.171 86.095 42.622 86.353L43.137 86.653C43.2032 86.6877 43.2647 86.7307 43.32 86.781Z" fill="#263238"/>
<path d="M40.642 88.228C40.62 88.26 39.16 87.318 37.386 86.123C35.612 84.928 34.186 83.929 34.206 83.897C34.226 83.865 35.685 84.807 37.459 86.002C39.233 87.197 40.668 88.193 40.642 88.228Z" fill="#263238"/>
<path d="M39.247 83.752C38.5042 83.9855 37.7201 84.0581 36.947 83.965C37.3249 83.8861 37.7091 83.8413 38.095 83.831C38.476 83.7714 38.8615 83.7449 39.247 83.752Z" fill="#263238"/>
<path d="M32.712 82.5829C32.434 83.2411 32.0695 83.8592 31.628 84.4209C31.7418 84.0823 31.9024 83.7612 32.105 83.4669C32.2644 83.145 32.4688 82.8473 32.712 82.5829Z" fill="#263238"/>
<path d="M34.016 89.087C33.77 88.9844 33.5353 88.8564 33.316 88.705C32.893 88.451 32.324 88.069 31.726 87.633C31.128 87.197 30.584 86.774 30.197 86.469C29.9813 86.3154 29.7804 86.142 29.597 85.951C29.8333 86.0741 30.0571 86.2202 30.265 86.387L31.82 87.516C32.42 87.955 32.981 88.34 33.388 88.616C33.6122 88.7529 33.824 88.9092 34.021 89.083L34.016 89.087Z" fill="#263238"/>
<path d="M28.823 95.564C28.2481 95.501 27.6702 95.6528 27.2006 95.9903C26.7309 96.3278 26.4027 96.827 26.279 97.392C26.1575 98.4948 26.3878 99.6079 26.937 100.572C27.9499 102.796 29.4523 104.762 31.332 106.324C33.2279 107.879 35.5935 108.747 38.045 108.789C37.597 106.703 38.163 104.521 37.915 102.4C37.6934 100.532 36.8446 98.794 35.5074 97.4707C34.1701 96.1474 32.4235 95.3169 30.553 95.115C29.876 95.042 29.09 94.937 28.82 95.563" fill="#0097C2"/>
<path d="M38.042 108.79C37.9886 108.772 37.9373 108.749 37.889 108.72C37.7491 108.641 37.6154 108.552 37.489 108.453C37.0441 108.066 36.6866 107.589 36.44 107.053C36.272 106.735 36.081 106.366 35.896 105.969C35.711 105.572 35.527 105.152 35.324 104.697C35.1209 104.231 34.887 103.78 34.624 103.345C34.3409 102.882 34.022 102.442 33.67 102.029C32.945 101.177 32.163 100.439 31.485 99.7289C30.8728 99.1118 30.3154 98.4426 29.819 97.7289C29.4865 97.245 29.2133 96.7229 29.005 96.1739C28.938 95.9799 28.887 95.8239 28.862 95.7189C28.8444 95.6666 28.8336 95.6121 28.83 95.5569C28.83 95.5569 28.903 95.7729 29.059 96.1569C29.2858 96.6915 29.5695 97.2001 29.905 97.6739C30.4106 98.3724 30.9721 99.0286 31.584 99.6359C32.265 100.336 33.05 101.074 33.784 101.936C34.1441 102.354 34.4705 102.801 34.76 103.271C35.0221 103.713 35.2559 104.171 35.46 104.642L36.02 105.914C36.198 106.308 36.382 106.671 36.548 106.998C36.7802 107.53 37.1177 108.009 37.54 108.407C37.851 108.675 38.061 108.777 38.042 108.79Z" fill="#263238"/>
<path d="M32.553 107.057C32.5598 106.815 32.5934 106.575 32.653 106.341C32.736 105.902 32.872 105.301 33.053 104.646C33.234 103.991 33.435 103.409 33.594 102.993C33.6633 102.761 33.7604 102.539 33.883 102.331C33.84 102.567 33.776 102.799 33.692 103.024C33.559 103.45 33.374 104.036 33.192 104.687C33.01 105.338 32.874 105.931 32.747 106.363C32.7033 106.6 32.6363 106.833 32.547 107.057H32.553Z" fill="#263238"/>
<path d="M37.851 101.934C37.5967 101.896 37.3458 101.838 37.101 101.759C36.643 101.641 36.01 101.476 35.308 101.317C34.606 101.158 33.963 101.037 33.499 100.948C33.2446 100.915 32.9935 100.86 32.749 100.782C33.0059 100.776 33.2627 100.797 33.515 100.846C33.986 100.906 34.634 101.015 35.34 101.164C35.9449 101.295 36.5424 101.457 37.13 101.651C37.38 101.72 37.622 101.814 37.852 101.934H37.851Z" fill="#263238"/>
<path d="M28.61 103.422C28.6221 103.142 28.6606 102.864 28.725 102.592C28.825 102.086 28.967 101.392 29.167 100.627C29.367 99.862 29.577 99.183 29.743 98.693C29.8246 98.424 29.931 98.1632 30.061 97.914C30.0159 98.1892 29.949 98.4604 29.861 98.725C29.721 99.225 29.524 99.905 29.327 100.662C29.13 101.419 28.964 102.115 28.847 102.614C28.7928 102.889 28.7151 103.16 28.615 103.422H28.61Z" fill="#263238"/>
<path d="M35.411 97.469C35.411 97.507 34.079 97.402 32.447 97.227C30.815 97.052 29.493 96.8799 29.499 96.8419C30.4904 96.8706 31.4797 96.9504 32.463 97.081C33.4516 97.16 34.4356 97.2895 35.411 97.469Z" fill="#263238"/>
<path d="M34.442 113.56C34.442 113.601 29.777 113.633 24.025 113.633C18.273 113.633 13.607 113.601 13.607 113.56C13.607 113.519 18.272 113.486 24.025 113.486C29.778 113.486 34.442 113.518 34.442 113.56Z" fill="#455A64"/>
<path d="M31.196 119.56C31.196 119.602 28.051 119.637 24.175 119.637C20.299 119.637 17.157 119.602 17.157 119.56C17.157 119.518 20.299 119.487 24.175 119.487C28.051 119.487 31.196 119.535 31.196 119.56Z" fill="#455A64"/>
<path d="M31.316 120.419C31.316 120.46 28.174 120.492 24.298 120.492C20.422 120.492 17.28 120.46 17.28 120.419C17.28 120.378 20.422 120.346 24.298 120.346C28.174 120.346 31.316 120.378 31.316 120.419Z" fill="#455A64"/>
<path d="M31.316 118.852C31.316 118.894 28.066 118.926 24.056 118.926C20.046 118.926 16.796 118.894 16.796 118.852C16.796 118.81 20.046 118.779 24.056 118.779C28.066 118.779 31.316 118.813 31.316 118.852Z" fill="#455A64"/>
</svg>
